<svg width="125" height="33" viewBox="0 0 125 33" fill="none" xmlns="http://www.w3.org/2000/svg">
<path d="M59.9855 20.7539H53.4617L51.824 25.691C51.7998 25.8388 51.7005 25.9139 51.5261 25.9139H48.5754C48.3768 25.9139 48.3283 25.8146 48.3768 25.6401L54.232 8.91987C54.3556 8.64612 54.4549 8.10105 54.4791 7.33311C54.4791 7.20956 54.5542 7.15869 54.6778 7.15869H58.721C58.8203 7.15869 58.8954 7.20714 58.9438 7.30647L65.4677 25.6644C65.5162 25.8388 65.4677 25.9115 65.2933 25.9115H61.9696C61.846 25.9115 61.7467 25.8364 61.6958 25.7128L59.9855 20.7539ZM54.1812 18.0261H59.2418C59.1667 17.7524 58.7694 16.5629 58.0499 14.4529C57.3547 12.3187 56.8847 10.8555 56.6618 10.0633H56.6376C56.439 11.0299 55.6201 13.685 54.1812 18.0261Z" fill="white"/>
<path d="M73.4066 26.1874C71.2239 26.1874 69.487 25.5914 68.1473 24.4262C66.8319 23.2343 66.1875 21.4732 66.1875 19.1669C66.1875 17.0835 66.8828 15.3708 68.2951 14.0069C69.7098 12.643 71.6188 11.9478 74.0001 11.9478C74.6445 11.9478 75.192 11.9962 75.5869 12.1222V5.82121C75.5869 5.69766 75.662 5.62256 75.7855 5.62256H78.9857C79.1093 5.62256 79.1601 5.67101 79.1601 5.79698V22.7644C79.1601 23.0866 79.1844 23.7309 79.2352 24.6733C79.2595 24.7969 79.1868 24.8962 79.0608 24.9204C77.302 25.7659 75.4149 26.1874 73.4066 26.1874ZM75.5651 23.2586V14.724C75.1436 14.5253 74.5985 14.426 73.9275 14.426C72.6871 14.426 71.6939 14.8233 70.9502 15.6421C70.2065 16.4367 69.8334 17.5511 69.8334 19.0167C69.8334 20.555 70.2065 21.696 70.9502 22.4397C71.6939 23.1835 72.6363 23.5565 73.8039 23.5565C74.5719 23.5832 75.1436 23.4839 75.5651 23.2586Z" fill="white"/>
<path d="M88.215 11.9478C90.3493 11.9478 92.0354 12.6164 93.2515 13.956C94.4676 15.2957 95.0877 16.9818 95.0877 19.0167C95.0877 21.2236 94.4434 22.9848 93.1788 24.276C91.9142 25.5406 90.2257 26.1849 88.169 26.1849C85.887 26.1849 84.1743 25.4897 82.9848 24.1258C81.7929 22.7377 81.2236 21.0492 81.2236 19.0651C81.2236 16.9818 81.868 15.269 83.1326 13.9294C84.4189 12.6164 86.1074 11.9478 88.215 11.9478ZM88.0673 14.4042C87.1007 14.4042 86.3061 14.8257 85.7102 15.6445C85.1142 16.4633 84.8162 17.5801 84.8162 19.0191C84.8162 20.4581 85.1142 21.5991 85.7102 22.4421C86.3061 23.2852 87.1491 23.7067 88.215 23.7067C89.1332 23.7067 89.9011 23.3094 90.5213 22.5415C91.1415 21.7469 91.4394 20.5816 91.4394 19.0433C91.4394 17.6286 91.1657 16.5142 90.5964 15.6688C90.0513 14.8257 89.2083 14.4042 88.0673 14.4042Z" fill="white"/>
<path d="M97.3195 5.62256H100.469C100.617 5.62256 100.692 5.69766 100.692 5.84543V12.4686C101.61 12.1222 102.576 11.972 103.618 11.972C105.578 11.972 107.14 12.5922 108.306 13.8567C109.498 15.0971 110.067 16.7105 110.067 18.6703C110.067 21.0274 109.347 22.8637 107.884 24.2276C106.421 25.5672 104.684 26.2358 102.649 26.2358C100.541 26.2358 98.7537 25.8894 97.2662 25.1699C97.1427 25.1215 97.0918 25.0222 97.0918 24.8962V5.81879C97.1209 5.67101 97.1717 5.62256 97.3195 5.62256ZM106.423 18.9925C106.423 17.5535 106.101 16.4634 105.43 15.7172C104.786 14.9735 103.916 14.6004 102.802 14.6004C101.983 14.6004 101.263 14.7482 100.667 15.0462V23.2561C101.213 23.5541 101.932 23.7019 102.826 23.7019C103.819 23.7019 104.662 23.3046 105.355 22.4858C106.077 21.6718 106.423 20.5066 106.423 18.9925Z" fill="white"/>
<path d="M120.837 19.7119H115.181C115.205 20.8529 115.554 21.7711 116.247 22.4663C116.966 23.135 117.984 23.4838 119.347 23.4838C120.687 23.4838 121.852 23.2609 122.846 22.7885C122.969 22.7401 123.02 22.7885 123.02 22.9363V25.0439C123.02 25.2183 122.972 25.3177 122.846 25.3903C121.654 25.9354 120.241 26.2092 118.604 26.2092C117.339 26.2092 116.247 26.0105 115.304 25.6132C114.362 25.2159 113.642 24.6951 113.122 23.9998C112.601 23.3312 112.203 22.585 111.93 21.7929C111.683 20.9741 111.557 20.131 111.557 19.2129C111.557 17.178 112.153 15.4434 113.318 14.0529C114.51 12.6382 116.145 11.9453 118.204 11.9453C120.164 11.9453 121.627 12.517 122.594 13.6823C123.56 14.8475 124.057 16.2114 124.057 17.7763C124.057 18.3481 124.008 18.8931 123.933 19.3897C123.909 19.5133 123.834 19.5884 123.71 19.6126C123.194 19.6877 122.225 19.7119 120.837 19.7119ZM115.157 17.5292H119.151C120.045 17.5292 120.539 17.505 120.639 17.4808C120.663 17.4057 120.663 17.2821 120.663 17.0835C120.663 16.364 120.464 15.7438 120.043 15.1745C119.645 14.6028 119.001 14.3315 118.083 14.3315C117.189 14.3315 116.496 14.6295 116 15.2496C115.527 15.8432 115.256 16.6111 115.157 17.5292Z" fill="white"/>
<path d="M23.4473 0.0654297H37.1636V32.9343L23.4473 0.0654297Z" fill="white"/>
<path d="M13.7713 0.0654297H0.0283203V32.9343L13.7713 0.0654297Z" fill="white"/>
<path d="M18.6095 12.1709L27.3403 32.9344H21.611L19.0068 26.3112H12.6064L18.6095 12.1709Z" fill="white"/>
</svg>
