<svg width="1085" height="720" viewBox="0 0 1085 720" fill="none" xmlns="http://www.w3.org/2000/svg">
<mask id="path-1-inside-1_45_55" fill="white">
<path d="M1084.62 360C1084.62 558.823 923.438 720 724.615 720C525.793 720 364.616 558.822 364.616 360C364.616 161.178 525.793 0.00015407 724.616 0.000188833C923.438 0.000223596 1084.62 161.178 1084.62 360Z"/>
</mask>
<path d="M1086.37 346.443L1086.29 344.445L1082.3 344.592L1082.37 346.59L1086.37 346.443ZM1079.29 311.03L1079.57 313.011L1083.53 312.469L1083.26 310.488L1079.29 311.03ZM1078.59 283.826L1078.17 281.871L1074.26 282.708L1074.68 284.664L1078.59 283.826ZM1065.46 250.183L1066.07 252.087L1069.88 250.861L1069.27 248.958L1065.46 250.183ZM1060 223.515L1059.25 221.663L1055.54 223.172L1056.3 225.024L1060 223.515ZM1041.19 192.687L1042.13 194.455L1045.66 192.583L1044.73 190.815L1041.19 192.687ZM1031.17 167.381L1030.1 165.688L1026.72 167.819L1027.79 169.512L1031.17 167.381ZM1007.29 140.291L1008.52 141.869L1011.67 139.412L1010.44 137.834L1007.29 140.291ZM993.032 117.104L991.69 115.622L988.725 118.307L990.067 119.789L993.032 117.104ZM964.827 94.5485L966.309 95.891L968.994 92.9259L967.511 91.5835L964.827 94.5485ZM946.782 74.1714L945.204 72.9429L942.747 76.0994L944.325 77.3279L946.782 74.1714ZM915.104 56.8303L916.796 57.896L918.928 54.5111L917.235 53.4454L915.104 56.8303ZM893.8 39.8867L892.033 38.9506L890.161 42.4855L891.928 43.4215L893.8 39.8867ZM859.591 28.3173L861.444 29.0718L862.953 25.3674L861.1 24.6129L859.591 28.3173ZM835.658 15.3499L833.754 14.737L832.528 18.5446L834.432 19.1575L835.658 15.3499ZM799.952 9.94037L801.907 10.3592L802.745 6.44791L800.789 6.02906L799.952 9.94037ZM774.128 1.35834L772.146 1.0873L771.604 5.0504L773.586 5.32144L774.128 1.35834ZM738.025 2.24667L740.024 2.32026L740.171 -1.67703L738.173 -1.75062L738.025 2.24667ZM711.059 -1.75063L709.06 -1.67703L709.207 2.32026L711.206 2.24667L711.059 -1.75063ZM675.645 5.32142L677.627 5.05039L677.085 1.08729L675.103 1.35832L675.645 5.32142ZM648.442 6.02905L646.486 6.44789L647.324 10.3592L649.279 9.94035L648.442 6.02905ZM614.799 19.1575L616.703 18.5446L615.477 14.737L613.573 15.3499L614.799 19.1575ZM588.13 24.6129L586.278 25.3674L587.787 29.0718L589.64 28.3173L588.13 24.6129ZM557.303 43.4215L559.07 42.4855L557.198 38.9506L555.431 39.8866L557.303 43.4215ZM531.996 53.4453L530.303 54.511L532.435 57.8959L534.127 56.8302L531.996 53.4453ZM504.906 77.3278L506.484 76.0994L504.027 72.9429L502.449 74.1714L504.906 77.3278ZM481.72 91.5834L480.237 92.9258L482.922 95.8909L484.404 94.5484L481.72 91.5834ZM459.164 119.789L460.506 118.306L457.541 115.622L456.199 117.104L459.164 119.789ZM438.787 137.834L437.558 139.412L440.715 141.869L441.943 140.291L438.787 137.834ZM421.446 169.512L422.511 167.819L419.126 165.688L418.061 167.38L421.446 169.512ZM404.502 190.815L403.566 192.583L407.101 194.455L408.037 192.687L404.502 190.815ZM392.933 225.024L393.687 223.172L389.983 221.663L389.228 223.515L392.933 225.024ZM379.965 248.958L379.352 250.861L383.16 252.087L383.773 250.183L379.965 248.958ZM374.556 284.664L374.975 282.708L371.063 281.87L370.644 283.826L374.556 284.664ZM365.974 310.488L365.703 312.469L369.666 313.011L369.937 311.03L365.974 310.488ZM366.862 346.59L366.936 344.592L362.938 344.444L362.865 346.443L366.862 346.59ZM362.865 373.557L362.938 375.556L366.936 375.408L366.862 373.41L362.865 373.557ZM369.937 408.97L369.666 406.989L365.703 407.531L365.974 409.512L369.937 408.97ZM370.644 436.174L371.063 438.13L374.975 437.292L374.556 435.336L370.644 436.174ZM383.773 469.817L383.16 467.913L379.352 469.139L379.965 471.043L383.773 469.817ZM389.228 496.485L389.983 498.337L393.687 496.828L392.933 494.976L389.228 496.485ZM408.037 527.313L407.101 525.545L403.566 527.417L404.502 529.185L408.037 527.313ZM418.061 552.62L419.126 554.312L422.511 552.181L421.446 550.488L418.061 552.62ZM441.943 579.709L440.715 578.131L437.558 580.588L438.787 582.166L441.943 579.709ZM456.199 602.896L457.541 604.378L460.506 601.694L459.164 600.211L456.199 602.896ZM484.404 625.452L482.922 624.109L480.237 627.074L481.719 628.417L484.404 625.452ZM502.449 645.829L504.027 647.057L506.484 643.901L504.906 642.672L502.449 645.829ZM534.127 663.17L532.435 662.104L530.303 665.489L531.996 666.555L534.127 663.17ZM555.431 680.114L557.198 681.05L559.07 677.515L557.303 676.579L555.431 680.114ZM589.639 691.683L587.787 690.928L586.278 694.633L588.13 695.387L589.639 691.683ZM613.573 704.65L615.477 705.263L616.702 701.456L614.799 700.843L613.573 704.65ZM649.279 710.06L647.324 709.641L646.486 713.552L648.441 713.971L649.279 710.06ZM675.103 718.642L677.085 718.913L677.627 714.95L675.645 714.679L675.103 718.642ZM711.206 717.754L709.207 717.68L709.06 721.677L711.058 721.751L711.206 717.754ZM738.172 721.751L740.171 721.677L740.024 717.68L738.025 717.754L738.172 721.751ZM773.586 714.679L771.604 714.95L772.146 718.913L774.128 718.642L773.586 714.679ZM800.789 713.971L802.745 713.552L801.907 709.641L799.952 710.06L800.789 713.971ZM834.432 700.843L832.528 701.456L833.754 705.263L835.658 704.65L834.432 700.843ZM861.1 695.387L862.953 694.633L861.444 690.928L859.591 691.683L861.1 695.387ZM891.928 676.579L890.161 677.515L892.033 681.05L893.8 680.114L891.928 676.579ZM917.235 666.555L918.927 665.489L916.796 662.104L915.104 663.17L917.235 666.555ZM944.325 642.672L942.746 643.901L945.203 647.057L946.782 645.829L944.325 642.672ZM967.511 628.417L968.994 627.074L966.309 624.109L964.826 625.452L967.511 628.417ZM990.067 600.211L988.725 601.694L991.69 604.379L993.032 602.896L990.067 600.211ZM1010.44 582.166L1011.67 580.588L1008.52 578.131L1007.29 579.709L1010.44 582.166ZM1027.79 550.488L1026.72 552.181L1030.1 554.312L1031.17 552.62L1027.79 550.488ZM1044.73 529.185L1045.66 527.418L1042.13 525.545L1041.19 527.313L1044.73 529.185ZM1056.3 494.976L1055.54 496.828L1059.25 498.337L1060 496.485L1056.3 494.976ZM1069.27 471.043L1069.88 469.139L1066.07 467.913L1065.46 469.817L1069.27 471.043ZM1074.68 435.336L1074.26 437.292L1078.17 438.13L1078.59 436.174L1074.68 435.336ZM1083.26 409.512L1083.53 407.531L1079.57 406.989L1079.29 408.97L1083.26 409.512ZM1082.37 373.41L1082.3 375.409L1086.29 375.556L1086.37 373.557L1082.37 373.41ZM1086.62 360C1086.62 355.461 1086.53 350.942 1086.37 346.443L1082.37 346.59C1082.53 351.04 1082.62 355.51 1082.62 360L1086.62 360ZM1083.26 310.488C1082.03 301.491 1080.47 292.6 1078.59 283.826L1074.68 284.664C1076.53 293.34 1078.08 302.133 1079.29 311.03L1083.26 310.488ZM1069.27 248.958C1066.49 240.331 1063.4 231.846 1060 223.515L1056.3 225.024C1059.65 233.262 1062.71 241.653 1065.46 250.183L1069.27 248.958ZM1044.73 190.815C1040.5 182.821 1035.97 175.005 1031.17 167.381L1027.79 169.512C1032.53 177.052 1037.01 184.782 1041.19 192.687L1044.73 190.815ZM1010.44 137.834C1004.9 130.706 999.087 123.792 993.032 117.104L990.067 119.789C996.056 126.403 1001.8 133.242 1007.29 140.291L1010.44 137.834ZM967.511 91.5835C960.824 85.5283 953.909 79.7195 946.782 74.1714L944.325 77.3279C951.374 82.8149 958.213 88.5599 964.827 94.5485L967.511 91.5835ZM917.235 53.4454C909.611 48.6446 901.794 44.1203 893.8 39.8867L891.928 43.4215C899.834 47.6083 907.563 52.0825 915.104 56.8303L917.235 53.4454ZM861.1 24.6129C852.77 21.2194 844.285 18.1272 835.658 15.3499L834.432 19.1575C842.963 21.9038 851.354 24.9616 859.591 28.3173L861.1 24.6129ZM800.789 6.02906C792.016 4.15 783.124 2.58889 774.128 1.35834L773.586 5.32144C782.483 6.53838 791.276 8.08219 799.952 9.94037L800.789 6.02906ZM738.173 -1.75062C733.674 -1.91626 729.154 -1.99981 724.616 -1.99981L724.616 2.00019C729.105 2.00019 733.576 2.08283 738.025 2.24667L738.173 -1.75062ZM724.616 -1.99981C720.077 -1.99981 715.557 -1.91627 711.059 -1.75063L711.206 2.24667C715.655 2.08283 720.126 2.00019 724.616 2.00019L724.616 -1.99981ZM675.103 1.35832C666.107 2.58887 657.215 4.14999 648.442 6.02905L649.279 9.94035C657.955 8.08218 666.748 6.53836 675.645 5.32142L675.103 1.35832ZM613.573 15.3499C604.946 18.1272 596.461 21.2194 588.13 24.6129L589.64 28.3173C597.877 24.9616 606.268 21.9038 614.799 19.1575L613.573 15.3499ZM555.431 39.8866C547.437 44.1203 539.62 48.6445 531.996 53.4453L534.127 56.8302C541.668 52.0825 549.397 47.6082 557.303 43.4215L555.431 39.8866ZM502.449 74.1714C495.322 79.7194 488.407 85.5282 481.72 91.5834L484.404 94.5484C491.018 88.5598 497.857 82.8148 504.906 77.3278L502.449 74.1714ZM456.199 117.104C450.144 123.791 444.335 130.706 438.787 137.834L441.943 140.291C447.43 133.241 453.175 126.403 459.164 119.789L456.199 117.104ZM418.061 167.38C413.26 175.005 408.736 182.821 404.502 190.815L408.037 192.687C412.224 184.782 416.698 177.052 421.446 169.512L418.061 167.38ZM389.228 223.515C385.835 231.846 382.743 240.331 379.965 248.958L383.773 250.183C386.519 241.653 389.577 233.262 392.933 225.024L389.228 223.515ZM370.644 283.826C368.765 292.6 367.204 301.491 365.974 310.488L369.937 311.03C371.154 302.133 372.698 293.34 374.556 284.664L370.644 283.826ZM362.865 346.443C362.699 350.942 362.616 355.461 362.616 360L366.616 360C366.616 355.51 366.698 351.04 366.862 346.59L362.865 346.443ZM362.616 360C362.616 364.539 362.699 369.058 362.865 373.557L366.862 373.41C366.698 368.96 366.616 364.49 366.616 360L362.616 360ZM365.974 409.512C367.204 418.509 368.765 427.4 370.644 436.174L374.556 435.336C372.698 426.66 371.154 417.867 369.937 408.97L365.974 409.512ZM379.965 471.043C382.743 479.669 385.835 488.155 389.228 496.485L392.933 494.976C389.577 486.738 386.519 478.347 383.773 469.817L379.965 471.043ZM404.502 529.185C408.736 537.179 413.26 544.995 418.061 552.62L421.446 550.488C416.698 542.948 412.224 535.218 408.037 527.313L404.502 529.185ZM438.787 582.166C444.335 589.294 450.144 596.209 456.199 602.896L459.164 600.211C453.175 593.597 447.43 586.759 441.943 579.709L438.787 582.166ZM481.719 628.417C488.407 634.472 495.321 640.281 502.449 645.829L504.906 642.672C497.857 637.185 491.018 631.44 484.404 625.452L481.719 628.417ZM531.996 666.555C539.62 671.356 547.437 675.88 555.431 680.114L557.303 676.579C549.397 672.392 541.667 667.918 534.127 663.17L531.996 666.555ZM588.13 695.387C596.461 698.781 604.946 701.873 613.573 704.65L614.799 700.843C606.268 698.096 597.877 695.039 589.639 691.683L588.13 695.387ZM648.441 713.971C657.215 715.85 666.107 717.411 675.103 718.642L675.645 714.679C666.748 713.462 657.955 711.918 649.279 710.06L648.441 713.971ZM711.058 721.751C715.557 721.916 720.076 722 724.615 722L724.615 718C720.126 718 715.655 717.917 711.206 717.754L711.058 721.751ZM724.615 722C729.154 722 733.674 721.916 738.172 721.751L738.025 717.754C733.576 717.917 729.105 718 724.615 718L724.615 722ZM774.128 718.642C783.124 717.411 792.016 715.85 800.789 713.971L799.952 710.06C791.276 711.918 782.483 713.462 773.586 714.679L774.128 718.642ZM835.658 704.65C844.285 701.873 852.77 698.781 861.1 695.387L859.591 691.683C851.354 695.039 842.963 698.096 834.432 700.843L835.658 704.65ZM893.8 680.114C901.794 675.88 909.61 671.356 917.235 666.555L915.104 663.17C907.563 667.918 899.834 672.392 891.928 676.579L893.8 680.114ZM946.782 645.829C953.909 640.281 960.824 634.472 967.511 628.417L964.826 625.452C958.213 631.44 951.374 637.185 944.325 642.672L946.782 645.829ZM993.032 602.896C999.087 596.209 1004.9 589.294 1010.44 582.166L1007.29 579.709C1001.8 586.759 996.056 593.597 990.067 600.211L993.032 602.896ZM1031.17 552.62C1035.97 544.995 1040.5 537.179 1044.73 529.185L1041.19 527.313C1037.01 535.218 1032.53 542.948 1027.79 550.488L1031.17 552.62ZM1060 496.485C1063.4 488.155 1066.49 479.669 1069.27 471.043L1065.46 469.817C1062.71 478.347 1059.65 486.738 1056.3 494.976L1060 496.485ZM1078.59 436.174C1080.47 427.4 1082.03 418.509 1083.26 409.512L1079.29 408.97C1078.08 417.867 1076.53 426.66 1074.68 435.336L1078.59 436.174ZM1086.37 373.557C1086.53 369.059 1086.62 364.539 1086.62 360L1082.62 360C1082.62 364.49 1082.53 368.96 1082.37 373.41L1086.37 373.557ZM1088.36 346.37L1088.22 342.372L1080.22 342.667L1080.37 346.664L1088.36 346.37ZM1077.31 311.301L1077.85 315.264L1085.78 314.18L1085.24 310.217L1077.31 311.301ZM1080.54 283.407L1079.7 279.496L1071.88 281.171L1072.72 285.083L1080.54 283.407ZM1063.55 250.796L1064.78 254.604L1072.4 252.152L1071.17 248.345L1063.55 250.796ZM1061.85 222.761L1060.35 219.056L1052.94 222.074L1054.45 225.779L1061.85 222.761ZM1039.43 193.623L1041.3 197.158L1048.37 193.414L1046.5 189.879L1039.43 193.623ZM1032.86 166.315L1030.73 162.93L1023.96 167.193L1026.09 170.577L1032.86 166.315ZM1005.71 141.519L1008.17 144.676L1014.48 139.762L1012.02 136.605L1005.71 141.519ZM994.515 115.762L991.83 112.797L985.9 118.166L988.585 121.131L994.515 115.762ZM963.484 96.0311L966.449 98.7159L971.819 92.7857L968.854 90.1009L963.484 96.0311ZM948.01 72.5932L944.854 70.1362L939.94 76.4492L943.096 78.9061L948.01 72.5932ZM914.038 58.5227L917.423 60.6541L921.686 53.8843L918.301 51.753L914.038 58.5227ZM894.736 38.1192L891.202 36.2472L887.457 43.3169L890.992 45.189L894.736 38.1192ZM858.837 30.1695L862.541 31.6786L865.559 24.2697L861.855 22.7607L858.837 30.1695ZM836.271 13.4462L832.463 12.2204L830.012 19.8355L833.819 21.0613L836.271 13.4462ZM799.533 11.896L803.444 12.7337L805.12 4.9111L801.208 4.07341L799.533 11.896ZM774.399 -0.623211L770.436 -1.16528L769.352 6.76092L773.315 7.30299L774.399 -0.623211ZM737.952 4.24532L741.949 4.3925L742.243 -3.60208L738.246 -3.74927L737.952 4.24532ZM710.985 -3.74927L706.988 -3.60209L707.282 4.39249L711.279 4.24531L710.985 -3.74927ZM675.916 7.30297L679.879 6.7609L678.795 -1.1653L674.832 -0.623226L675.916 7.30297ZM648.023 4.0734L644.111 4.91108L645.787 12.7337L649.698 11.896L648.023 4.0734ZM615.412 21.0612L619.219 19.8354L616.768 12.2203L612.96 13.4462L615.412 21.0612ZM587.376 22.7606L583.672 24.2697L586.69 31.6785L590.394 30.1695L587.376 22.7606ZM558.239 45.1889L561.774 43.3169L558.029 36.2471L554.495 38.1192L558.239 45.1889ZM530.93 51.7529L527.545 53.8842L531.808 60.654L535.193 58.5227L530.93 51.7529ZM506.135 78.9061L509.291 76.4491L504.377 70.1362L501.221 72.5931L506.135 78.9061ZM480.377 90.1008L477.412 92.7856L482.782 98.7158L485.747 96.031L480.377 90.1008ZM460.646 121.131L463.331 118.166L457.401 112.797L454.716 115.762L460.646 121.131ZM437.209 136.605L434.752 139.762L441.065 144.676L443.521 141.519L437.209 136.605ZM423.138 170.577L425.269 167.193L418.5 162.93L416.368 166.315L423.138 170.577ZM402.735 189.879L400.863 193.414L407.932 197.158L409.804 193.623L402.735 189.879ZM394.785 225.779L396.294 222.074L388.885 219.056L387.376 222.761L394.785 225.779ZM378.062 248.345L376.836 252.152L384.451 254.604L385.677 250.796L378.062 248.345ZM376.511 285.083L377.349 281.171L369.526 279.496L368.689 283.407L376.511 285.083ZM363.992 310.217L363.45 314.18L371.376 315.264L371.918 311.301L363.992 310.217ZM368.861 346.664L369.008 342.667L361.013 342.372L360.866 346.369L368.861 346.664ZM360.866 373.631L361.013 377.628L369.008 377.334L368.861 373.336L360.866 373.631ZM371.918 408.699L371.376 404.736L363.45 405.82L363.992 409.783L371.918 408.699ZM368.689 436.593L369.526 440.504L377.349 438.829L376.511 434.917L368.689 436.593ZM385.677 469.204L384.451 465.396L376.836 467.848L378.062 471.655L385.677 469.204ZM387.376 497.24L388.885 500.944L396.294 497.926L394.785 494.222L387.376 497.24ZM409.804 526.377L407.932 522.842L400.862 526.586L402.735 530.121L409.804 526.377ZM416.368 553.685L418.5 557.07L425.269 552.808L423.138 549.423L416.368 553.685ZM443.521 578.481L441.064 575.324L434.752 580.238L437.208 583.395L443.521 578.481ZM454.716 604.238L457.401 607.203L463.331 601.834L460.646 598.869L454.716 604.238ZM485.747 623.969L482.782 621.284L477.412 627.214L480.377 629.899L485.747 623.969ZM501.221 647.407L504.377 649.864L509.291 643.551L506.135 641.094L501.221 647.407ZM535.193 661.477L531.808 659.346L527.545 666.116L530.93 668.247L535.193 661.477ZM554.494 681.881L558.029 683.753L561.774 676.683L558.239 674.811L554.494 681.881ZM590.394 689.831L586.69 688.322L583.671 695.73L587.376 697.24L590.394 689.831ZM612.96 706.554L616.768 707.78L619.219 700.165L615.412 698.939L612.96 706.554ZM649.698 708.104L645.787 707.266L644.111 715.089L648.023 715.927L649.698 708.104ZM674.832 720.623L678.795 721.165L679.879 713.239L675.916 712.697L674.832 720.623ZM711.279 715.755L707.282 715.608L706.987 723.602L710.985 723.749L711.279 715.755ZM738.246 723.749L742.243 723.602L741.949 715.608L737.952 715.755L738.246 723.749ZM773.315 712.697L769.351 713.239L770.436 721.165L774.399 720.623L773.315 712.697ZM801.208 715.927L805.119 715.089L803.444 707.267L799.533 708.104L801.208 715.927ZM833.819 698.939L830.012 700.165L832.463 707.78L836.271 706.554L833.819 698.939ZM861.855 697.24L865.559 695.731L862.541 688.322L858.837 689.831L861.855 697.24ZM890.992 674.811L887.457 676.683L891.201 683.753L894.736 681.881L890.992 674.811ZM918.301 668.247L921.686 666.116L917.423 659.346L914.038 661.478L918.301 668.247ZM943.096 641.094L939.94 643.551L944.854 649.864L948.01 647.407L943.096 641.094ZM968.854 629.899L971.819 627.215L966.449 621.284L963.484 623.969L968.854 629.899ZM988.584 598.869L985.9 601.834L991.83 607.204L994.515 604.238L988.584 598.869ZM1012.02 583.395L1014.48 580.238L1008.17 575.325L1005.71 578.481L1012.02 583.395ZM1026.09 549.423L1023.96 552.808L1030.73 557.07L1032.86 553.685L1026.09 549.423ZM1046.5 530.121L1048.37 526.586L1041.3 522.842L1039.43 526.377L1046.5 530.121ZM1054.45 494.222L1052.94 497.926L1060.35 500.944L1061.85 497.24L1054.45 494.222ZM1071.17 471.656L1072.4 467.848L1064.78 465.396L1063.55 469.204L1071.17 471.656ZM1072.72 434.918L1071.88 438.829L1079.7 440.504L1080.54 436.593L1072.72 434.918ZM1085.24 409.783L1085.78 405.82L1077.85 404.736L1077.31 408.699L1085.24 409.783ZM1080.37 373.336L1080.22 377.334L1088.22 377.628L1088.36 373.631L1080.37 373.336ZM1088.62 360C1088.62 355.437 1088.53 350.893 1088.36 346.37L1080.37 346.664C1080.53 351.089 1080.62 355.535 1080.62 360L1088.62 360ZM1085.24 310.217C1084 301.171 1082.43 292.23 1080.54 283.407L1072.72 285.083C1074.57 293.71 1076.1 302.454 1077.31 311.301L1085.24 310.217ZM1071.17 248.345C1068.38 239.67 1065.27 231.137 1061.85 222.761L1054.45 225.779C1057.78 233.97 1060.82 242.314 1063.55 250.796L1071.17 248.345ZM1046.5 189.879C1042.24 181.841 1037.69 173.982 1032.86 166.315L1026.09 170.577C1030.81 178.076 1035.26 185.762 1039.43 193.623L1046.5 189.879ZM1012.02 136.605C1006.44 129.439 1000.6 122.486 994.515 115.762L988.585 121.131C994.54 127.709 1000.25 134.509 1005.71 141.519L1012.02 136.605ZM968.854 90.1009C962.13 84.0125 955.177 78.1717 948.01 72.5932L943.096 78.9061C950.106 84.3626 956.907 90.0757 963.484 96.0311L968.854 90.1009ZM918.301 51.753C910.634 46.9256 902.775 42.3763 894.736 38.1192L890.992 45.189C898.853 49.3523 906.54 53.8015 914.038 58.5227L918.301 51.753ZM861.855 22.7607C853.478 19.3483 844.946 16.2389 836.271 13.4462L833.819 21.0613C842.302 23.7921 850.645 26.8327 858.837 30.1695L861.855 22.7607ZM801.208 4.07341C792.386 2.18391 783.445 0.614138 774.399 -0.623211L773.315 7.30299C782.162 8.51313 790.906 10.0483 799.533 11.896L801.208 4.07341ZM738.246 -3.74927C733.723 -3.91581 729.179 -3.99981 724.616 -3.99981L724.616 4.00019C729.081 4.00019 733.527 4.08238 737.952 4.24532L738.246 -3.74927ZM724.616 -3.99981C720.052 -3.99981 715.508 -3.91582 710.985 -3.74927L711.279 4.24531C715.704 4.08238 720.15 4.00019 724.616 4.00019L724.616 -3.99981ZM674.832 -0.623226C665.786 0.614121 656.845 2.18389 648.023 4.0734L649.698 11.896C658.325 10.0483 667.069 8.51311 675.916 7.30297L674.832 -0.623226ZM612.96 13.4462C604.285 16.2389 595.753 19.3483 587.376 22.7606L590.394 30.1695C598.586 26.8326 606.929 23.7921 615.412 21.0612L612.96 13.4462ZM554.495 38.1192C546.456 42.3763 538.597 46.9256 530.93 51.7529L535.193 58.5227C542.691 53.8014 550.378 49.3522 558.239 45.1889L554.495 38.1192ZM501.221 72.5931C494.054 78.1717 487.101 84.0124 480.377 90.1008L485.747 96.031C492.324 90.0756 499.125 84.3626 506.135 78.9061L501.221 72.5931ZM454.716 115.762C448.628 122.486 442.787 129.438 437.209 136.605L443.521 141.519C448.978 134.509 454.691 127.709 460.646 121.131L454.716 115.762ZM416.368 166.315C411.541 173.981 406.992 181.841 402.735 189.879L409.804 193.623C413.968 185.762 418.417 178.076 423.138 170.577L416.368 166.315ZM387.376 222.761C383.964 231.137 380.854 239.67 378.062 248.345L385.677 250.796C388.408 242.314 391.448 233.97 394.785 225.779L387.376 222.761ZM368.689 283.407C366.799 292.23 365.229 301.17 363.992 310.217L371.918 311.301C373.128 302.454 374.664 293.71 376.511 285.083L368.689 283.407ZM360.866 346.369C360.7 350.893 360.616 355.437 360.616 360L368.616 360C368.616 355.535 368.698 351.089 368.861 346.664L360.866 346.369ZM360.616 360C360.616 364.563 360.7 369.107 360.866 373.631L368.861 373.336C368.698 368.911 368.616 364.465 368.616 360L360.616 360ZM363.992 409.783C365.229 418.83 366.799 427.77 368.689 436.593L376.511 434.917C374.664 426.29 373.128 417.547 371.918 408.699L363.992 409.783ZM378.062 471.655C380.854 480.33 383.964 488.863 387.376 497.24L394.785 494.222C391.448 486.03 388.407 477.686 385.677 469.204L378.062 471.655ZM402.735 530.121C406.992 538.159 411.541 546.019 416.368 553.685L423.138 549.423C418.417 541.924 413.968 534.238 409.804 526.377L402.735 530.121ZM437.208 583.395C442.787 590.562 448.628 597.514 454.716 604.238L460.646 598.869C454.691 592.292 448.978 585.491 443.521 578.481L437.208 583.395ZM480.377 629.899C487.101 635.988 494.054 641.828 501.221 647.407L506.135 641.094C499.125 635.638 492.324 629.925 485.747 623.969L480.377 629.899ZM530.93 668.247C538.597 673.075 546.456 677.624 554.494 681.881L558.239 674.811C550.378 670.648 542.691 666.199 535.193 661.477L530.93 668.247ZM587.376 697.24C595.753 700.652 604.285 703.761 612.96 706.554L615.412 698.939C606.929 696.208 598.585 693.168 590.394 689.831L587.376 697.24ZM648.023 715.927C656.845 717.816 665.786 719.386 674.832 720.623L675.916 712.697C667.069 711.487 658.325 709.952 649.698 708.104L648.023 715.927ZM710.985 723.749C715.508 723.916 720.052 724 724.615 724L724.615 716C720.15 716 715.704 715.918 711.279 715.755L710.985 723.749ZM724.615 724C729.179 724 733.723 723.916 738.246 723.749L737.952 715.755C733.527 715.918 729.081 716 724.615 716L724.615 724ZM774.399 720.623C783.445 719.386 792.386 717.816 801.208 715.927L799.533 708.104C790.905 709.952 782.162 711.487 773.315 712.697L774.399 720.623ZM836.271 706.554C844.946 703.761 853.478 700.652 861.855 697.24L858.837 689.831C850.645 693.168 842.302 696.208 833.819 698.939L836.271 706.554ZM894.736 681.881C902.775 677.624 910.634 673.075 918.301 668.247L914.038 661.478C906.54 666.199 898.853 670.648 890.992 674.811L894.736 681.881ZM948.01 647.407C955.177 641.829 962.13 635.988 968.854 629.899L963.484 623.969C956.907 629.925 950.106 635.638 943.096 641.094L948.01 647.407ZM994.515 604.238C1000.6 597.514 1006.44 590.562 1012.02 583.395L1005.71 578.481C1000.25 585.491 994.54 592.292 988.584 598.869L994.515 604.238ZM1032.86 553.685C1037.69 546.019 1042.24 538.159 1046.5 530.121L1039.43 526.377C1035.26 534.238 1030.81 541.925 1026.09 549.423L1032.86 553.685ZM1061.85 497.24C1065.27 488.863 1068.38 480.33 1071.17 471.656L1063.55 469.204C1060.82 477.686 1057.78 486.03 1054.45 494.222L1061.85 497.24ZM1080.54 436.593C1082.43 427.771 1084 418.83 1085.24 409.783L1077.31 408.699C1076.1 417.547 1074.57 426.29 1072.72 434.918L1080.54 436.593ZM1088.36 373.631C1088.53 369.108 1088.62 364.564 1088.62 360L1080.62 360C1080.62 364.465 1080.53 368.911 1080.37 373.336L1088.36 373.631Z" fill="#5951FF" mask="url(#path-1-inside-1_45_55)"/>
<g clip-path="url(#clip0_45_55)">
<g style="mix-blend-mode:multiply" opacity="0.3">
<path d="M716.454 360.02C716.454 162.496 556.59 2.37773 359.396 2.37772C162.201 2.3777 2.33758 162.496 2.33756 360.02C2.33755 557.544 162.201 717.662 359.396 717.662C556.59 717.662 716.454 557.544 716.454 360.02Z" fill="#5951FF"/>
<path d="M716.454 360.02C716.454 162.496 556.59 2.37773 359.396 2.37772C162.201 2.3777 2.33758 162.496 2.33756 360.02C2.33755 557.544 162.201 717.662 359.396 717.662C556.59 717.662 716.454 557.544 716.454 360.02Z" stroke="#5951FF" stroke-width="4.67506"/>
</g>
</g>
<defs>
<clipPath id="clip0_45_55">
<rect width="718.791" height="719.96" fill="white" transform="translate(718.791 720) rotate(-180)"/>
</clipPath>
</defs>
</svg>
