<svg width="1085" height="720" viewBox="0 0 1085 720" fill="none" xmlns="http://www.w3.org/2000/svg">
<mask id="path-1-inside-1_41_215" fill="white">
<path d="M9.25073e-05 360C0.000109889 161.178 161.178 0.000134252 360 0.000151633C558.822 0.000169015 720 161.178 720 360C720 558.823 558.822 720 360 720C161.178 720 7.51257e-05 558.822 9.25073e-05 360Z"/>
</mask>
<path d="M-1.75072 373.557L-1.67713 375.556L2.32016 375.408L2.24657 373.41L-1.75072 373.557ZM5.32133 408.97L5.0503 406.989L1.0872 407.531L1.35823 409.512L5.32133 408.97ZM6.02896 436.174L6.4478 438.13L10.3591 437.292L9.94026 435.336L6.02896 436.174ZM19.1574 469.817L18.5445 467.913L14.7369 469.139L15.3498 471.043L19.1574 469.817ZM24.6128 496.485L25.3673 498.337L29.0717 496.828L28.3172 494.976L24.6128 496.485ZM43.4214 527.313L42.4854 525.545L38.9505 527.417L39.8866 529.185L43.4214 527.313ZM53.4453 552.62L54.5109 554.312L57.8958 552.181L56.8302 550.488L53.4453 552.62ZM77.3278 579.709L76.0993 578.131L72.9428 580.588L74.1713 582.166L77.3278 579.709ZM91.5833 602.896L92.9257 604.378L95.8908 601.694L94.5484 600.211L91.5833 602.896ZM119.789 625.452L118.306 624.109L115.622 627.074L117.104 628.417L119.789 625.452ZM137.834 645.829L139.412 647.057L141.869 643.901L140.291 642.672L137.834 645.829ZM169.512 663.17L167.819 662.104L165.688 665.489L167.38 666.555L169.512 663.17ZM190.815 680.113L192.583 681.05L194.455 677.515L192.687 676.579L190.815 680.113ZM225.024 691.683L223.172 690.928L221.663 694.633L223.515 695.387L225.024 691.683ZM248.957 704.65L250.861 705.263L252.087 701.456L250.183 700.843L248.957 704.65ZM284.664 710.06L282.708 709.641L281.87 713.552L283.826 713.971L284.664 710.06ZM310.488 718.642L312.469 718.913L313.011 714.95L311.03 714.679L310.488 718.642ZM346.59 717.753L344.591 717.68L344.444 721.677L346.443 721.751L346.59 717.753ZM373.557 721.751L375.556 721.677L375.408 717.68L373.41 717.753L373.557 721.751ZM408.97 714.679L406.989 714.95L407.531 718.913L409.512 718.642L408.97 714.679ZM436.174 713.971L438.13 713.552L437.292 709.641L435.336 710.06L436.174 713.971ZM469.817 700.843L467.913 701.456L469.139 705.263L471.043 704.65L469.817 700.843ZM496.485 695.387L498.337 694.633L496.828 690.928L494.976 691.683L496.485 695.387ZM527.313 676.579L525.545 677.515L527.417 681.05L529.185 680.114L527.313 676.579ZM552.62 666.555L554.312 665.489L552.181 662.104L550.488 663.17L552.62 666.555ZM579.709 642.672L578.131 643.901L580.588 647.057L582.166 645.829L579.709 642.672ZM602.896 628.417L604.378 627.074L601.694 624.109L600.211 625.452L602.896 628.417ZM625.452 600.211L624.109 601.694L627.074 604.379L628.417 602.896L625.452 600.211ZM645.829 582.166L647.057 580.588L643.901 578.131L642.672 579.709L645.829 582.166ZM663.17 550.488L662.104 552.181L665.489 554.312L666.555 552.62L663.17 550.488ZM680.113 529.185L681.049 527.418L677.515 525.545L676.579 527.313L680.113 529.185ZM691.683 494.976L690.928 496.828L694.633 498.337L695.387 496.485L691.683 494.976ZM704.65 471.043L705.263 469.139L701.456 467.913L700.843 469.817L704.65 471.043ZM710.06 435.336L709.641 437.292L713.552 438.13L713.971 436.174L710.06 435.336ZM718.642 409.512L718.913 407.531L714.95 406.989L714.679 408.97L718.642 409.512ZM717.753 373.41L717.68 375.409L721.677 375.556L721.751 373.557L717.753 373.41ZM721.751 346.443L721.677 344.444L717.68 344.592L717.753 346.59L721.751 346.443ZM714.679 311.03L714.95 313.011L718.913 312.469L718.642 310.488L714.679 311.03ZM713.971 283.826L713.552 281.87L709.641 282.708L710.06 284.664L713.971 283.826ZM700.843 250.183L701.456 252.087L705.263 250.861L704.65 248.958L700.843 250.183ZM695.387 223.515L694.633 221.663L690.928 223.172L691.683 225.024L695.387 223.515ZM676.579 192.687L677.515 194.455L681.049 192.583L680.113 190.815L676.579 192.687ZM666.555 167.38L665.489 165.688L662.104 167.819L663.17 169.512L666.555 167.38ZM642.672 140.291L643.901 141.869L647.057 139.412L645.829 137.834L642.672 140.291ZM628.417 117.104L627.074 115.622L624.109 118.306L625.452 119.789L628.417 117.104ZM600.211 94.5485L601.694 95.8909L604.378 92.9258L602.896 91.5834L600.211 94.5485ZM582.166 74.1714L580.588 72.9429L578.131 76.0994L579.709 77.3278L582.166 74.1714ZM550.488 56.8302L552.181 57.8959L554.312 54.511L552.62 53.4453L550.488 56.8302ZM529.185 39.8866L527.417 38.9506L525.545 42.4855L527.313 43.4215L529.185 39.8866ZM494.976 28.3173L496.828 29.0718L498.337 25.3674L496.485 24.6128L494.976 28.3173ZM471.043 15.3499L469.139 14.737L467.913 18.5445L469.817 19.1574L471.043 15.3499ZM435.336 9.94032L437.292 10.3592L438.13 6.44787L436.174 6.02902L435.336 9.94032ZM409.512 1.3583L407.531 1.08726L406.989 5.05036L408.97 5.3214L409.512 1.3583ZM373.41 2.24663L375.409 2.32022L375.556 -1.67707L373.557 -1.75066L373.41 2.24663ZM346.443 -1.75066L344.444 -1.67707L344.592 2.32022L346.59 2.24663L346.443 -1.75066ZM311.03 5.32139L313.011 5.05036L312.469 1.08726L310.488 1.35829L311.03 5.32139ZM283.826 6.02902L281.87 6.44786L282.708 10.3592L284.664 9.94032L283.826 6.02902ZM250.183 19.1574L252.087 18.5445L250.861 14.737L248.957 15.3499L250.183 19.1574ZM223.515 24.6128L221.663 25.3674L223.172 29.0718L225.024 28.3173L223.515 24.6128ZM192.687 43.4215L194.455 42.4854L192.583 38.9506L190.815 39.8866L192.687 43.4215ZM167.38 53.4453L165.688 54.511L167.819 57.8959L169.512 56.8302L167.38 53.4453ZM140.291 77.3278L141.869 76.0993L139.412 72.9429L137.834 74.1713L140.291 77.3278ZM117.104 91.5833L115.622 92.9257L118.306 95.8908L119.789 94.5484L117.104 91.5833ZM94.5484 119.789L95.8908 118.306L92.9257 115.622L91.5833 117.104L94.5484 119.789ZM74.1713 137.834L72.9428 139.412L76.0993 141.869L77.3278 140.291L74.1713 137.834ZM56.8302 169.512L57.8958 167.819L54.5109 165.688L53.4453 167.38L56.8302 169.512ZM39.8866 190.815L38.9505 192.583L42.4854 194.455L43.4214 192.687L39.8866 190.815ZM28.3172 225.024L29.0717 223.172L25.3673 221.663L24.6128 223.515L28.3172 225.024ZM15.3498 248.958L14.7369 250.861L18.5445 252.087L19.1574 250.183L15.3498 248.958ZM9.94026 284.664L10.3591 282.708L6.44781 281.87L6.02896 283.826L9.94026 284.664ZM1.35824 310.488L1.0872 312.469L5.0503 313.011L5.32134 311.03L1.35824 310.488ZM2.24657 346.59L2.32017 344.592L-1.67713 344.444L-1.75072 346.443L2.24657 346.59ZM-1.99991 360C-1.99991 364.539 -1.91636 369.058 -1.75072 373.557L2.24657 373.41C2.08273 368.96 2.00009 364.49 2.00009 360L-1.99991 360ZM1.35823 409.512C2.58878 418.509 4.14989 427.4 6.02896 436.174L9.94026 435.336C8.08209 426.66 6.53827 417.867 5.32133 408.97L1.35823 409.512ZM15.3498 471.043C18.1271 479.669 21.2193 488.155 24.6128 496.485L28.3172 494.976C24.9615 486.738 21.9037 478.347 19.1574 469.817L15.3498 471.043ZM39.8866 529.185C44.1202 537.179 48.6445 544.995 53.4453 552.62L56.8302 550.488C52.0824 542.948 47.6082 535.218 43.4214 527.313L39.8866 529.185ZM74.1713 582.166C79.7193 589.294 85.5281 596.209 91.5833 602.896L94.5484 600.211C88.5597 593.597 82.8148 586.759 77.3278 579.709L74.1713 582.166ZM117.104 628.417C123.791 634.472 130.706 640.281 137.834 645.829L140.291 642.672C133.241 637.185 126.403 631.44 119.789 625.452L117.104 628.417ZM167.38 666.555C175.005 671.356 182.821 675.88 190.815 680.113L192.687 676.579C184.782 672.392 177.052 667.918 169.512 663.17L167.38 666.555ZM223.515 695.387C231.845 698.781 240.331 701.873 248.957 704.65L250.183 700.843C241.653 698.096 233.262 695.039 225.024 691.683L223.515 695.387ZM283.826 713.971C292.6 715.85 301.491 717.411 310.488 718.642L311.03 714.679C302.133 713.462 293.34 711.918 284.664 710.06L283.826 713.971ZM346.443 721.751C350.942 721.916 355.461 722 360 722L360 718C355.51 718 351.04 717.917 346.59 717.753L346.443 721.751ZM360 722C364.539 722 369.058 721.916 373.557 721.751L373.41 717.753C368.96 717.917 364.49 718 360 718L360 722ZM409.512 718.642C418.509 717.411 427.4 715.85 436.174 713.971L435.336 710.06C426.66 711.918 417.867 713.462 408.97 714.679L409.512 718.642ZM471.043 704.65C479.669 701.873 488.155 698.781 496.485 695.387L494.976 691.683C486.738 695.039 478.347 698.096 469.817 700.843L471.043 704.65ZM529.185 680.114C537.179 675.88 544.995 671.356 552.62 666.555L550.488 663.17C542.948 667.918 535.218 672.392 527.313 676.579L529.185 680.114ZM582.166 645.829C589.294 640.281 596.209 634.472 602.896 628.417L600.211 625.452C593.597 631.44 586.759 637.185 579.709 642.672L582.166 645.829ZM628.417 602.896C634.472 596.209 640.281 589.294 645.829 582.166L642.672 579.709C637.185 586.759 631.44 593.597 625.452 600.211L628.417 602.896ZM666.555 552.62C671.356 544.995 675.88 537.179 680.113 529.185L676.579 527.313C672.392 535.218 667.918 542.948 663.17 550.488L666.555 552.62ZM695.387 496.485C698.781 488.155 701.873 479.669 704.65 471.043L700.843 469.817C698.096 478.347 695.039 486.738 691.683 494.976L695.387 496.485ZM713.971 436.174C715.85 427.4 717.411 418.509 718.642 409.512L714.679 408.97C713.462 417.867 711.918 426.66 710.06 435.336L713.971 436.174ZM721.751 373.557C721.916 369.058 722 364.539 722 360L718 360C718 364.49 717.917 368.96 717.753 373.41L721.751 373.557ZM722 360C722 355.461 721.916 350.942 721.751 346.443L717.753 346.59C717.917 351.04 718 355.51 718 360L722 360ZM718.642 310.488C717.411 301.491 715.85 292.6 713.971 283.826L710.06 284.664C711.918 293.34 713.462 302.133 714.679 311.03L718.642 310.488ZM704.65 248.958C701.873 240.331 698.781 231.846 695.387 223.515L691.683 225.024C695.039 233.262 698.096 241.653 700.843 250.183L704.65 248.958ZM680.113 190.815C675.88 182.821 671.356 175.005 666.555 167.38L663.17 169.512C667.918 177.052 672.392 184.782 676.579 192.687L680.113 190.815ZM645.829 137.834C640.281 130.706 634.472 123.791 628.417 117.104L625.452 119.789C631.44 126.403 637.185 133.242 642.672 140.291L645.829 137.834ZM602.896 91.5834C596.209 85.5282 589.294 79.7194 582.166 74.1714L579.709 77.3278C586.759 82.8149 593.597 88.5598 600.211 94.5485L602.896 91.5834ZM552.62 53.4453C544.995 48.6445 537.179 44.1203 529.185 39.8866L527.313 43.4215C535.218 47.6082 542.948 52.0825 550.488 56.8302L552.62 53.4453ZM496.485 24.6128C488.155 21.2194 479.669 18.1272 471.043 15.3499L469.817 19.1574C478.347 21.9038 486.738 24.9615 494.976 28.3173L496.485 24.6128ZM436.174 6.02902C427.4 4.14996 418.509 2.58884 409.512 1.3583L408.97 5.3214C417.867 6.53834 426.66 8.08215 435.336 9.94032L436.174 6.02902ZM373.557 -1.75066C369.058 -1.9163 364.539 -1.99985 360 -1.99985L360 2.00015C364.49 2.00015 368.96 2.08279 373.41 2.24663L373.557 -1.75066ZM360 -1.99985C355.461 -1.99985 350.942 -1.9163 346.443 -1.75066L346.59 2.24663C351.04 2.08279 355.51 2.00015 360 2.00015L360 -1.99985ZM310.488 1.35829C301.491 2.58884 292.6 4.14995 283.826 6.02902L284.664 9.94032C293.34 8.08215 302.133 6.53833 311.03 5.32139L310.488 1.35829ZM248.957 15.3499C240.331 18.1272 231.845 21.2194 223.515 24.6128L225.024 28.3173C233.262 24.9615 241.653 21.9038 250.183 19.1574L248.957 15.3499ZM190.815 39.8866C182.821 44.1203 175.005 48.6445 167.38 53.4453L169.512 56.8302C177.052 52.0824 184.782 47.6082 192.687 43.4215L190.815 39.8866ZM137.834 74.1713C130.706 79.7194 123.791 85.5282 117.104 91.5833L119.789 94.5484C126.403 88.5598 133.241 82.8148 140.291 77.3278L137.834 74.1713ZM91.5833 117.104C85.5281 123.791 79.7194 130.706 74.1713 137.834L77.3278 140.291C82.8148 133.241 88.5597 126.403 94.5484 119.789L91.5833 117.104ZM53.4453 167.38C48.6445 175.005 44.1202 182.821 39.8866 190.815L43.4214 192.687C47.6082 184.782 52.0824 177.052 56.8302 169.512L53.4453 167.38ZM24.6128 223.515C21.2193 231.846 18.1271 240.331 15.3498 248.958L19.1574 250.183C21.9037 241.653 24.9615 233.262 28.3172 225.024L24.6128 223.515ZM6.02896 283.826C4.1499 292.6 2.58878 301.491 1.35824 310.488L5.32134 311.03C6.53828 302.133 8.08209 293.34 9.94026 284.664L6.02896 283.826ZM-1.75072 346.443C-1.91636 350.942 -1.99991 355.461 -1.99991 360L2.00009 360C2.00009 355.51 2.08273 351.04 2.24657 346.59L-1.75072 346.443ZM-3.74937 373.631L-3.60218 377.628L4.3924 377.334L4.24522 373.336L-3.74937 373.631ZM7.30288 408.699L6.76081 404.736L-1.16539 405.82L-0.623318 409.783L7.30288 408.699ZM4.07331 436.593L4.91099 440.504L12.7336 438.829L11.8959 434.917L4.07331 436.593ZM21.0612 469.204L19.8353 465.396L12.2203 467.848L13.4461 471.655L21.0612 469.204ZM22.7606 497.24L24.2696 500.944L31.6785 497.926L30.1694 494.222L22.7606 497.24ZM45.1889 526.377L43.3168 522.842L36.247 526.586L38.1191 530.121L45.1889 526.377ZM51.7528 553.685L53.8841 557.07L60.6539 552.808L58.5226 549.423L51.7528 553.685ZM78.906 578.481L76.449 575.324L70.1361 580.238L72.593 583.395L78.906 578.481ZM90.1007 604.238L92.7855 607.203L98.7157 601.834L96.0309 598.869L90.1007 604.238ZM121.131 623.969L118.166 621.284L112.797 627.214L115.762 629.899L121.131 623.969ZM136.605 647.407L139.762 649.864L144.676 643.551L141.519 641.094L136.605 647.407ZM170.577 661.477L167.192 659.346L162.93 666.116L166.315 668.247L170.577 661.477ZM189.879 681.881L193.414 683.753L197.158 676.683L193.623 674.811L189.879 681.881ZM225.779 689.831L222.074 688.322L219.056 695.73L222.76 697.239L225.779 689.831ZM248.345 706.554L252.152 707.78L254.604 700.165L250.796 698.939L248.345 706.554ZM285.083 708.104L281.171 707.266L279.496 715.089L283.407 715.927L285.083 708.104ZM310.217 720.623L314.18 721.165L315.264 713.239L311.301 712.697L310.217 720.623ZM346.664 715.755L342.666 715.608L342.372 723.602L346.369 723.749L346.664 715.755ZM373.631 723.749L377.628 723.602L377.333 715.608L373.336 715.755L373.631 723.749ZM408.699 712.697L404.736 713.239L405.82 721.165L409.783 720.623L408.699 712.697ZM436.593 715.927L440.504 715.089L438.829 707.266L434.917 708.104L436.593 715.927ZM469.204 698.939L465.396 700.165L467.848 707.78L471.655 706.554L469.204 698.939ZM497.24 697.239L500.944 695.73L497.926 688.322L494.221 689.831L497.24 697.239ZM526.377 674.811L522.842 676.683L526.586 683.753L530.121 681.881L526.377 674.811ZM553.685 668.247L557.07 666.116L552.808 659.346L549.423 661.477L553.685 668.247ZM578.481 641.094L575.324 643.551L580.238 649.864L583.395 647.407L578.481 641.094ZM604.238 629.899L607.203 627.215L601.834 621.284L598.869 623.969L604.238 629.899ZM623.969 598.869L621.284 601.834L627.214 607.203L629.899 604.238L623.969 598.869ZM647.407 583.395L649.864 580.238L643.551 575.324L641.094 578.481L647.407 583.395ZM661.477 549.423L659.346 552.808L666.116 557.07L668.247 553.685L661.477 549.423ZM681.881 530.121L683.753 526.586L676.683 522.842L674.811 526.377L681.881 530.121ZM689.831 494.222L688.322 497.926L695.73 500.944L697.239 497.24L689.831 494.222ZM706.554 471.655L707.78 467.848L700.165 465.396L698.939 469.204L706.554 471.655ZM708.104 434.917L707.266 438.829L715.089 440.504L715.927 436.593L708.104 434.917ZM720.623 409.783L721.165 405.82L713.239 404.736L712.697 408.699L720.623 409.783ZM715.755 373.336L715.608 377.334L723.602 377.628L723.749 373.631L715.755 373.336ZM723.749 346.37L723.602 342.372L715.608 342.667L715.755 346.664L723.749 346.37ZM712.697 311.301L713.239 315.264L721.165 314.18L720.623 310.217L712.697 311.301ZM715.927 283.407L715.089 279.496L707.266 281.171L708.104 285.083L715.927 283.407ZM698.939 250.796L700.165 254.604L707.78 252.152L706.554 248.345L698.939 250.796ZM697.239 222.761L695.73 219.056L688.322 222.074L689.831 225.779L697.239 222.761ZM674.811 193.623L676.683 197.158L683.753 193.414L681.881 189.879L674.811 193.623ZM668.247 166.315L666.116 162.93L659.346 167.193L661.477 170.577L668.247 166.315ZM641.094 141.519L643.551 144.676L649.864 139.762L647.407 136.605L641.094 141.519ZM629.899 115.762L627.214 112.797L621.284 118.166L623.969 121.131L629.899 115.762ZM598.869 96.031L601.834 98.7158L607.203 92.7857L604.238 90.1008L598.869 96.031ZM583.395 72.5931L580.238 70.1362L575.324 76.4491L578.481 78.9061L583.395 72.5931ZM549.423 58.5227L552.808 60.654L557.07 53.8842L553.685 51.7529L549.423 58.5227ZM530.121 38.1192L526.586 36.2471L522.842 43.3168L526.377 45.1889L530.121 38.1192ZM494.221 30.1695L497.926 31.6785L500.944 24.2697L497.24 22.7606L494.221 30.1695ZM471.655 13.4461L467.848 12.2203L465.396 19.8354L469.204 21.0612L471.655 13.4461ZM434.917 11.896L438.829 12.7337L440.504 4.91106L436.593 4.07337L434.917 11.896ZM409.783 -0.623252L405.82 -1.16532L404.736 6.76088L408.699 7.30295L409.783 -0.623252ZM373.336 4.24528L377.334 4.39246L377.628 -3.60212L373.631 -3.7493L373.336 4.24528ZM346.369 -3.74931L342.372 -3.60212L342.667 4.39246L346.664 4.24528L346.369 -3.74931ZM311.301 7.30294L315.264 6.76087L314.18 -1.16533L310.217 -0.623259L311.301 7.30294ZM283.407 4.07337L279.496 4.91105L281.171 12.7337L285.083 11.896L283.407 4.07337ZM250.796 21.0612L254.604 19.8354L252.152 12.2203L248.345 13.4461L250.796 21.0612ZM222.76 22.7606L219.056 24.2697L222.074 31.6785L225.779 30.1695L222.76 22.7606ZM193.623 45.1889L197.158 43.3168L193.414 36.2471L189.879 38.1192L193.623 45.1889ZM166.315 51.7529L162.93 53.8842L167.192 60.654L170.577 58.5227L166.315 51.7529ZM141.519 78.9061L144.676 76.4491L139.762 70.1361L136.605 72.5931L141.519 78.9061ZM115.762 90.1008L112.797 92.7856L118.166 98.7158L121.131 96.031L115.762 90.1008ZM96.031 121.131L98.7158 118.166L92.7856 112.797L90.1008 115.762L96.031 121.131ZM72.5931 136.605L70.1361 139.762L76.4491 144.676L78.906 141.519L72.5931 136.605ZM58.5226 170.577L60.6539 167.192L53.8841 162.93L51.7528 166.315L58.5226 170.577ZM38.1191 189.879L36.247 193.414L43.3168 197.158L45.1889 193.623L38.1191 189.879ZM30.1694 225.779L31.6785 222.074L24.2696 219.056L22.7606 222.761L30.1694 225.779ZM13.4461 248.345L12.2203 252.152L19.8353 254.604L21.0612 250.796L13.4461 248.345ZM11.8959 285.083L12.7336 281.171L4.911 279.496L4.07331 283.407L11.8959 285.083ZM-0.623311 310.217L-1.16538 314.18L6.76082 315.264L7.30289 311.301L-0.623311 310.217ZM4.24522 346.664L4.3924 342.667L-3.60218 342.372L-3.74936 346.369L4.24522 346.664ZM-3.99991 360C-3.99991 364.563 -3.91591 369.107 -3.74937 373.631L4.24522 373.336C4.08228 368.911 4.00009 364.465 4.00009 360L-3.99991 360ZM-0.623318 409.783C0.61403 418.83 2.1838 427.77 4.07331 436.593L11.8959 434.917C10.0482 426.29 8.51302 417.547 7.30288 408.699L-0.623318 409.783ZM13.4461 471.655C16.2388 480.33 19.3482 488.863 22.7606 497.24L30.1694 494.222C26.8326 486.03 23.792 477.686 21.0612 469.204L13.4461 471.655ZM38.1191 530.121C42.3762 538.159 46.9255 546.019 51.7528 553.685L58.5226 549.423C53.8013 541.924 49.3521 534.238 45.1889 526.377L38.1191 530.121ZM72.593 583.395C78.1716 590.562 84.0123 597.514 90.1007 604.238L96.0309 598.869C90.0755 592.292 84.3625 585.491 78.906 578.481L72.593 583.395ZM115.762 629.899C122.486 635.988 129.438 641.828 136.605 647.407L141.519 641.094C134.509 635.638 127.708 629.925 121.131 623.969L115.762 629.899ZM166.315 668.247C173.981 673.075 181.841 677.624 189.879 681.881L193.623 674.811C185.762 670.648 178.076 666.199 170.577 661.477L166.315 668.247ZM222.76 697.239C231.137 700.652 239.67 703.761 248.345 706.554L250.796 698.939C242.314 696.208 233.97 693.167 225.779 689.831L222.76 697.239ZM283.407 715.927C292.23 717.816 301.17 719.386 310.217 720.623L311.301 712.697C302.453 711.487 293.71 709.952 285.083 708.104L283.407 715.927ZM346.369 723.749C350.892 723.916 355.437 724 360 724L360 716C355.535 716 351.089 715.918 346.664 715.755L346.369 723.749ZM360 724C364.563 724 369.107 723.916 373.631 723.749L373.336 715.755C368.911 715.918 364.465 716 360 716L360 724ZM409.783 720.623C418.83 719.386 427.77 717.816 436.593 715.927L434.917 708.104C426.29 709.952 417.547 711.487 408.699 712.697L409.783 720.623ZM471.655 706.554C480.33 703.761 488.863 700.652 497.24 697.239L494.221 689.831C486.03 693.167 477.686 696.208 469.204 698.939L471.655 706.554ZM530.121 681.881C538.159 677.624 546.019 673.075 553.685 668.247L549.423 661.477C541.924 666.199 534.238 670.648 526.377 674.811L530.121 681.881ZM583.395 647.407C590.562 641.828 597.514 635.988 604.238 629.899L598.869 623.969C592.292 629.925 585.491 635.638 578.481 641.094L583.395 647.407ZM629.899 604.238C635.988 597.514 641.828 590.562 647.407 583.395L641.094 578.481C635.637 585.491 629.924 592.292 623.969 598.869L629.899 604.238ZM668.247 553.685C673.074 546.019 677.624 538.159 681.881 530.121L674.811 526.377C670.648 534.238 666.199 541.924 661.477 549.423L668.247 553.685ZM697.239 497.24C700.652 488.863 703.761 480.33 706.554 471.655L698.939 469.204C696.208 477.686 693.167 486.03 689.831 494.222L697.239 497.24ZM715.927 436.593C717.816 427.77 719.386 418.83 720.623 409.783L712.697 408.699C711.487 417.547 709.952 426.29 708.104 434.917L715.927 436.593ZM723.749 373.631C723.916 369.108 724 364.564 724 360L716 360C716 364.465 715.918 368.911 715.755 373.336L723.749 373.631ZM724 360C724 355.437 723.916 350.893 723.749 346.37L715.755 346.664C715.918 351.089 716 355.535 716 360L724 360ZM720.623 310.217C719.386 301.17 717.816 292.23 715.927 283.407L708.104 285.083C709.952 293.71 711.487 302.454 712.697 311.301L720.623 310.217ZM706.554 248.345C703.761 239.67 700.652 231.137 697.239 222.761L689.831 225.779C693.167 233.97 696.208 242.314 698.939 250.796L706.554 248.345ZM681.881 189.879C677.624 181.841 673.074 173.981 668.247 166.315L661.477 170.577C666.199 178.076 670.648 185.762 674.811 193.623L681.881 189.879ZM647.407 136.605C641.828 129.438 635.988 122.486 629.899 115.762L623.969 121.131C629.925 127.709 635.638 134.509 641.094 141.519L647.407 136.605ZM604.238 90.1008C597.514 84.0124 590.562 78.1717 583.395 72.5931L578.481 78.9061C585.491 84.3626 592.292 90.0756 598.869 96.031L604.238 90.1008ZM553.685 51.7529C546.019 46.9256 538.159 42.3763 530.121 38.1192L526.377 45.1889C534.238 49.3522 541.924 53.8014 549.423 58.5227L553.685 51.7529ZM497.24 22.7606C488.863 19.3483 480.33 16.2389 471.655 13.4461L469.204 21.0612C477.686 23.7921 486.03 26.8326 494.221 30.1695L497.24 22.7606ZM436.593 4.07337C427.77 2.18386 418.83 0.614096 409.783 -0.623252L408.699 7.30295C417.547 8.51308 426.29 10.0482 434.917 11.896L436.593 4.07337ZM373.631 -3.7493C369.108 -3.91585 364.563 -3.99985 360 -3.99985L360 4.00015C364.465 4.00015 368.911 4.08234 373.336 4.24528L373.631 -3.7493ZM360 -3.99985C355.437 -3.99985 350.893 -3.91585 346.369 -3.74931L346.664 4.24528C351.089 4.08234 355.535 4.00015 360 4.00015L360 -3.99985ZM310.217 -0.623259C301.17 0.614089 292.23 2.18386 283.407 4.07337L285.083 11.896C293.71 10.0482 302.453 8.51308 311.301 7.30294L310.217 -0.623259ZM248.345 13.4461C239.67 16.2389 231.137 19.3483 222.76 22.7606L225.779 30.1695C233.97 26.8326 242.314 23.7921 250.796 21.0612L248.345 13.4461ZM189.879 38.1192C181.841 42.3763 173.981 46.9256 166.315 51.7529L170.577 58.5227C178.076 53.8014 185.762 49.3522 193.623 45.1889L189.879 38.1192ZM136.605 72.5931C129.438 78.1717 122.486 84.0124 115.762 90.1008L121.131 96.031C127.708 90.0756 134.509 84.3626 141.519 78.9061L136.605 72.5931ZM90.1008 115.762C84.0123 122.486 78.1716 129.438 72.5931 136.605L78.906 141.519C84.3625 134.509 90.0755 127.708 96.031 121.131L90.1008 115.762ZM51.7528 166.315C46.9255 173.981 42.3762 181.841 38.1191 189.879L45.1889 193.623C49.3522 185.762 53.8013 178.076 58.5226 170.577L51.7528 166.315ZM22.7606 222.761C19.3482 231.137 16.2388 239.67 13.4461 248.345L21.0612 250.796C23.792 242.314 26.8326 233.97 30.1694 225.779L22.7606 222.761ZM4.07331 283.407C2.1838 292.23 0.614036 301.17 -0.623311 310.217L7.30289 311.301C8.51302 302.454 10.0482 293.71 11.8959 285.083L4.07331 283.407ZM-3.74936 346.369C-3.91591 350.893 -3.99991 355.437 -3.99991 360L4.00009 360C4.00009 355.535 4.08228 351.089 4.24522 346.664L-3.74936 346.369Z" fill="#5951FF" mask="url(#path-1-inside-1_41_215)"/>
<g clip-path="url(#clip0_41_215)">
<g style="mix-blend-mode:multiply" opacity="0.3">
<path d="M368.162 359.98C368.162 557.504 528.026 717.622 725.22 717.622C922.414 717.622 1082.28 557.504 1082.28 359.98C1082.28 162.456 922.414 2.33753 725.22 2.33753C528.026 2.33753 368.162 162.456 368.162 359.98Z" fill="#5951FF"/>
<path d="M368.162 359.98C368.162 557.504 528.026 717.622 725.22 717.622C922.414 717.622 1082.28 557.504 1082.28 359.98C1082.28 162.456 922.414 2.33753 725.22 2.33753C528.026 2.33753 368.162 162.456 368.162 359.98Z" stroke="#5951FF" stroke-width="4.67506"/>
</g>
</g>
<defs>
<clipPath id="clip0_41_215">
<rect width="718.791" height="719.96" fill="white" transform="translate(365.824)"/>
</clipPath>
</defs>
</svg>
