<svg width="693" height="720" viewBox="0 0 693 720" fill="none" xmlns="http://www.w3.org/2000/svg">
<mask id="path-1-inside-1_679_34339" fill="white">
<path d="M692.615 360C692.615 558.823 531.437 720 332.615 720C133.793 720 -27.3849 558.822 -27.3848 360C-27.3848 161.177 133.793 2.81812e-05 332.615 6.29444e-05C531.438 9.77076e-05 692.615 161.178 692.615 360Z"/>
</mask>
<path d="M694.366 346.443L694.292 344.444L690.295 344.592L690.369 346.59L694.366 346.443ZM687.294 311.03L687.565 313.011L691.528 312.469L691.257 310.488L687.294 311.03ZM686.586 283.826L686.167 281.87L682.256 282.708L682.675 284.664L686.586 283.826ZM673.458 250.183L674.071 252.087L677.878 250.861L677.265 248.957L673.458 250.183ZM668.002 223.515L667.248 221.663L663.543 223.172L664.298 225.024L668.002 223.515ZM649.194 192.687L650.13 194.455L653.665 192.583L652.729 190.815L649.194 192.687ZM639.17 167.38L638.104 165.688L634.719 167.819L635.785 169.512L639.17 167.38ZM615.287 140.291L616.516 141.869L619.672 139.412L618.444 137.834L615.287 140.291ZM601.032 117.104L599.689 115.622L596.724 118.306L598.067 119.789L601.032 117.104ZM572.826 94.5484L574.309 95.8908L576.994 92.9257L575.511 91.5833L572.826 94.5484ZM554.781 74.1713L553.203 72.9428L550.746 76.0993L552.324 77.3278L554.781 74.1713ZM523.103 56.8302L524.796 57.8958L526.927 54.5109L525.235 53.4453L523.103 56.8302ZM501.8 39.8866L500.033 38.9505L498.16 42.4854L499.928 43.4214L501.8 39.8866ZM467.591 28.3172L469.443 29.0717L470.952 25.3673L469.1 24.6128L467.591 28.3172ZM443.658 15.3498L441.754 14.7369L440.528 18.5445L442.432 19.1574L443.658 15.3498ZM407.951 9.94024L409.907 10.3591L410.745 6.44778L408.789 6.02894L407.951 9.94024ZM382.127 1.35821L380.146 1.08718L379.604 5.05028L381.585 5.32131L382.127 1.35821ZM346.025 2.24654L348.024 2.32014L348.171 -1.67715L346.172 -1.75075L346.025 2.24654ZM319.058 -1.75075L317.06 -1.67716L317.207 2.32013L319.205 2.24654L319.058 -1.75075ZM283.645 5.3213L285.626 5.05026L285.084 1.08716L283.103 1.3582L283.645 5.3213ZM256.441 6.02892L254.486 6.44777L255.323 10.3591L257.279 9.94022L256.441 6.02892ZM222.798 19.1573L224.702 18.5444L223.476 14.7369L221.573 15.3498L222.798 19.1573ZM196.13 24.6127L194.278 25.3673L195.787 29.0717L197.639 28.3172L196.13 24.6127ZM165.302 43.4214L167.07 42.4853L165.198 38.9505L163.43 39.8865L165.302 43.4214ZM139.996 53.4452L138.303 54.5109L140.434 57.8958L142.127 56.8301L139.996 53.4452ZM112.906 77.3277L114.484 76.0992L112.027 72.9428L110.449 74.1712L112.906 77.3277ZM89.7192 91.5832L88.2367 92.9256L90.9215 95.8907L92.404 94.5483L89.7192 91.5832ZM67.1635 119.789L68.5059 118.306L65.5408 115.621L64.1984 117.104L67.1635 119.789ZM46.7864 137.834L45.5579 139.412L48.7144 141.869L49.9429 140.291L46.7864 137.834ZM29.4453 169.512L30.5109 167.819L27.126 165.688L26.0604 167.38L29.4453 169.512ZM12.5017 190.815L11.5656 192.582L15.1005 194.455L16.0365 192.687L12.5017 190.815ZM0.932309 225.024L1.68682 223.172L-2.01761 221.663L-2.77212 223.515L0.932309 225.024ZM-12.0351 248.957L-12.648 250.861L-8.84043 252.087L-8.22753 250.183L-12.0351 248.957ZM-17.4447 284.664L-17.0258 282.708L-20.9371 281.87L-21.356 283.826L-17.4447 284.664ZM-26.0267 310.488L-26.2977 312.469L-22.3346 313.011L-22.0636 311.03L-26.0267 310.488ZM-25.1383 346.59L-25.0648 344.591L-29.062 344.444L-29.1356 346.443L-25.1383 346.59ZM-29.1356 373.557L-29.0621 375.556L-25.0648 375.408L-25.1384 373.41L-29.1356 373.557ZM-22.0636 408.97L-22.3346 406.989L-26.2977 407.531L-26.0267 409.512L-22.0636 408.97ZM-21.356 436.174L-20.9371 438.13L-17.0258 437.292L-17.4447 435.336L-21.356 436.174ZM-8.22754 469.817L-8.84045 467.913L-12.648 469.139L-12.0351 471.042L-8.22754 469.817ZM-2.77215 496.485L-2.01764 498.337L1.6868 496.828L0.932281 494.976L-2.77215 496.485ZM16.0365 527.313L15.1004 525.545L11.5656 527.417L12.5016 529.185L16.0365 527.313ZM26.0603 552.62L27.126 554.312L30.5109 552.181L29.4452 550.488L26.0603 552.62ZM49.9428 579.709L48.7143 578.131L45.5579 580.588L46.7863 582.166L49.9428 579.709ZM64.1983 602.896L65.5407 604.378L68.5058 601.694L67.1634 600.211L64.1983 602.896ZM92.4039 625.451L90.9214 624.109L88.2366 627.074L89.7191 628.417L92.4039 625.451ZM110.449 645.829L112.027 647.057L114.484 643.901L112.906 642.672L110.449 645.829ZM142.127 663.17L140.434 662.104L138.303 665.489L139.995 666.555L142.127 663.17ZM163.43 680.113L165.198 681.049L167.07 677.515L165.302 676.579L163.43 680.113ZM197.639 691.683L195.787 690.928L194.278 694.633L196.13 695.387L197.639 691.683ZM221.573 704.65L223.476 705.263L224.702 701.455L222.798 700.843L221.573 704.65ZM257.279 710.06L255.323 709.641L254.485 713.552L256.441 713.971L257.279 710.06ZM283.103 718.642L285.084 718.913L285.626 714.95L283.645 714.679L283.103 718.642ZM319.205 717.753L317.207 717.68L317.059 721.677L319.058 721.751L319.205 717.753ZM346.172 721.751L348.171 721.677L348.023 717.68L346.025 717.753L346.172 721.751ZM381.585 714.679L379.604 714.95L380.146 718.913L382.127 718.642L381.585 714.679ZM408.789 713.971L410.745 713.552L409.907 709.641L407.951 710.06L408.789 713.971ZM442.432 700.843L440.528 701.456L441.754 705.263L443.658 704.65L442.432 700.843ZM469.1 695.387L470.952 694.633L469.443 690.928L467.591 691.683L469.1 695.387ZM499.928 676.579L498.16 677.515L500.032 681.049L501.8 680.113L499.928 676.579ZM525.235 666.555L526.927 665.489L524.796 662.104L523.103 663.17L525.235 666.555ZM552.324 642.672L550.746 643.901L553.203 647.057L554.781 645.829L552.324 642.672ZM575.511 628.417L576.993 627.074L574.309 624.109L572.826 625.452L575.511 628.417ZM598.067 600.211L596.724 601.694L599.689 604.378L601.032 602.896L598.067 600.211ZM618.444 582.166L619.672 580.588L616.516 578.131L615.287 579.709L618.444 582.166ZM635.785 550.488L634.719 552.181L638.104 554.312L639.17 552.62L635.785 550.488ZM652.728 529.185L653.665 527.417L650.13 525.545L649.194 527.313L652.728 529.185ZM664.298 494.976L663.543 496.828L667.248 498.337L668.002 496.485L664.298 494.976ZM677.265 471.043L677.878 469.139L674.071 467.913L673.458 469.817L677.265 471.043ZM682.675 435.336L682.256 437.292L686.167 438.13L686.586 436.174L682.675 435.336ZM691.257 409.512L691.528 407.531L687.565 406.989L687.294 408.97L691.257 409.512ZM690.369 373.41L690.295 375.409L694.292 375.556L694.366 373.557L690.369 373.41ZM694.615 360C694.615 355.461 694.531 350.942 694.366 346.443L690.369 346.59C690.532 351.04 690.615 355.51 690.615 360L694.615 360ZM691.257 310.488C690.026 301.491 688.465 292.6 686.586 283.826L682.675 284.664C684.533 293.34 686.077 302.133 687.294 311.03L691.257 310.488ZM677.265 248.957C674.488 240.331 671.396 231.845 668.002 223.515L664.298 225.024C667.654 233.262 670.711 241.653 673.458 250.183L677.265 248.957ZM652.729 190.815C648.495 182.821 643.971 175.005 639.17 167.38L635.785 169.512C640.533 177.052 645.007 184.782 649.194 192.687L652.729 190.815ZM618.444 137.834C612.896 130.706 607.087 123.791 601.032 117.104L598.067 119.789C604.055 126.403 609.8 133.241 615.287 140.291L618.444 137.834ZM575.511 91.5833C568.824 85.5281 561.909 79.7193 554.781 74.1713L552.324 77.3278C559.374 82.8148 566.212 88.5597 572.826 94.5484L575.511 91.5833ZM525.235 53.4453C517.61 48.6445 509.794 44.1202 501.8 39.8866L499.928 43.4214C507.833 47.6082 515.563 52.0824 523.103 56.8302L525.235 53.4453ZM469.1 24.6128C460.77 21.2193 452.284 18.1271 443.658 15.3498L442.432 19.1574C450.962 21.9037 459.353 24.9615 467.591 28.3172L469.1 24.6128ZM408.789 6.02894C400.015 4.14988 391.124 2.58876 382.127 1.35821L381.585 5.32131C390.482 6.53825 399.275 8.08207 407.951 9.94024L408.789 6.02894ZM346.172 -1.75075C341.674 -1.91639 337.154 -1.99994 332.615 -1.99994L332.615 2.00006C337.105 2.00006 341.575 2.08271 346.025 2.24654L346.172 -1.75075ZM332.615 -1.99994C328.076 -1.99994 323.557 -1.91639 319.058 -1.75075L319.205 2.24654C323.655 2.0827 328.125 2.00006 332.615 2.00006L332.615 -1.99994ZM283.103 1.3582C274.106 2.58874 265.215 4.14986 256.441 6.02892L257.279 9.94022C265.955 8.08205 274.748 6.53824 283.645 5.3213L283.103 1.3582ZM221.573 15.3498C212.946 18.1271 204.461 21.2193 196.13 24.6127L197.639 28.3172C205.877 24.9614 214.268 21.9037 222.798 19.1573L221.573 15.3498ZM163.43 39.8865C155.436 44.1202 147.62 48.6444 139.996 53.4452L142.127 56.8301C149.667 52.0823 157.397 47.6081 165.302 43.4214L163.43 39.8865ZM110.449 74.1712C103.321 79.7193 96.4065 85.528 89.7192 91.5832L92.404 94.5483C99.0179 88.5596 105.857 82.8147 112.906 77.3277L110.449 74.1712ZM64.1984 117.104C58.1432 123.791 52.3345 130.706 46.7864 137.834L49.9429 140.291C55.4299 133.241 61.1748 126.403 67.1635 119.789L64.1984 117.104ZM26.0604 167.38C21.2596 175.005 16.7353 182.821 12.5017 190.815L16.0365 192.687C20.2233 184.782 24.6975 177.052 29.4453 169.512L26.0604 167.38ZM-2.77212 223.515C-6.16562 231.845 -9.25778 240.331 -12.0351 248.957L-8.22753 250.183C-5.48117 241.653 -2.42344 233.262 0.932309 225.024L-2.77212 223.515ZM-21.356 283.826C-23.235 292.6 -24.7961 301.491 -26.0267 310.488L-22.0636 311.03C-20.8466 302.133 -19.3028 293.34 -17.4447 284.664L-21.356 283.826ZM-29.1356 346.443C-29.3013 350.941 -29.3848 355.461 -29.3848 360L-25.3848 360C-25.3848 355.51 -25.3022 351.04 -25.1383 346.59L-29.1356 346.443ZM-29.3848 360C-29.3848 364.539 -29.3013 369.058 -29.1356 373.557L-25.1384 373.41C-25.3022 368.96 -25.3848 364.49 -25.3848 360L-29.3848 360ZM-26.0267 409.512C-24.7961 418.509 -23.235 427.4 -21.356 436.174L-17.4447 435.336C-19.3028 426.66 -20.8467 417.867 -22.0636 408.97L-26.0267 409.512ZM-12.0351 471.042C-9.2578 479.669 -6.16564 488.154 -2.77215 496.485L0.932281 494.976C-2.42346 486.738 -5.48119 478.347 -8.22754 469.817L-12.0351 471.042ZM12.5016 529.185C16.7353 537.179 21.2595 544.995 26.0603 552.62L29.4452 550.488C24.6974 542.948 20.2232 535.218 16.0365 527.313L12.5016 529.185ZM46.7863 582.166C52.3344 589.294 58.1432 596.209 64.1983 602.896L67.1634 600.211C61.1748 593.597 55.4298 586.758 49.9428 579.709L46.7863 582.166ZM89.7191 628.417C96.4064 634.472 103.321 640.281 110.449 645.829L112.906 642.672C105.856 637.185 99.0178 631.44 92.4039 625.451L89.7191 628.417ZM139.995 666.555C147.62 671.355 155.436 675.88 163.43 680.113L165.302 676.579C157.397 672.392 149.667 667.918 142.127 663.17L139.995 666.555ZM196.13 695.387C204.461 698.781 212.946 701.873 221.573 704.65L222.798 700.843C214.268 698.096 205.877 695.038 197.639 691.683L196.13 695.387ZM256.441 713.971C265.215 715.85 274.106 717.411 283.103 718.642L283.645 714.679C274.748 713.462 265.955 711.918 257.279 710.06L256.441 713.971ZM319.058 721.751C323.557 721.916 328.076 722 332.615 722L332.615 718C328.125 718 323.655 717.917 319.205 717.753L319.058 721.751ZM332.615 722C337.154 722 341.673 721.916 346.172 721.751L346.025 717.753C341.575 717.917 337.105 718 332.615 718L332.615 722ZM382.127 718.642C391.124 717.411 400.015 715.85 408.789 713.971L407.951 710.06C399.275 711.918 390.482 713.462 381.585 714.679L382.127 718.642ZM443.658 704.65C452.284 701.873 460.77 698.781 469.1 695.387L467.591 691.683C459.353 695.039 450.962 698.096 442.432 700.843L443.658 704.65ZM501.8 680.113C509.794 675.88 517.61 671.356 525.235 666.555L523.103 663.17C515.563 667.918 507.833 672.392 499.928 676.579L501.8 680.113ZM554.781 645.829C561.909 640.281 568.824 634.472 575.511 628.417L572.826 625.452C566.212 631.44 559.374 637.185 552.324 642.672L554.781 645.829ZM601.032 602.896C607.087 596.209 612.896 589.294 618.444 582.166L615.287 579.709C609.8 586.759 604.055 593.597 598.067 600.211L601.032 602.896ZM639.17 552.62C643.971 544.995 648.495 537.179 652.728 529.185L649.194 527.313C645.007 535.218 640.533 542.948 635.785 550.488L639.17 552.62ZM668.002 496.485C671.396 488.155 674.488 479.669 677.265 471.043L673.458 469.817C670.711 478.347 667.654 486.738 664.298 494.976L668.002 496.485ZM686.586 436.174C688.465 427.4 690.026 418.509 691.257 409.512L687.294 408.97C686.077 417.867 684.533 426.66 682.675 435.336L686.586 436.174ZM694.366 373.557C694.531 369.058 694.615 364.539 694.615 360L690.615 360C690.615 364.49 690.532 368.96 690.369 373.41L694.366 373.557ZM696.364 346.369L696.217 342.372L688.223 342.667L688.37 346.664L696.364 346.369ZM685.312 311.301L685.854 315.264L693.78 314.18L693.238 310.217L685.312 311.301ZM688.542 283.407L687.704 279.496L679.881 281.171L680.719 285.083L688.542 283.407ZM671.554 250.796L672.78 254.604L680.395 252.152L679.169 248.345L671.554 250.796ZM669.855 222.76L668.345 219.056L660.937 222.074L662.446 225.779L669.855 222.76ZM647.426 193.623L649.298 197.158L656.368 193.414L654.496 189.879L647.426 193.623ZM640.862 166.315L638.731 162.93L631.961 167.192L634.092 170.577L640.862 166.315ZM613.709 141.519L616.166 144.676L622.479 139.762L620.022 136.605L613.709 141.519ZM602.514 115.762L599.83 112.797L593.899 118.166L596.584 121.131L602.514 115.762ZM571.484 96.031L574.449 98.7158L579.819 92.7856L576.853 90.1008L571.484 96.031ZM556.01 72.5931L552.853 70.1361L547.94 76.4491L551.096 78.906L556.01 72.5931ZM522.038 58.5226L525.423 60.6539L529.685 53.8841L526.3 51.7528L522.038 58.5226ZM502.736 38.1191L499.201 36.247L495.457 43.3168L498.992 45.1889L502.736 38.1191ZM466.837 30.1694L470.541 31.6784L473.559 24.2696L469.855 22.7606L466.837 30.1694ZM444.271 13.446L440.463 12.2202L438.011 19.8353L441.819 21.0611L444.271 13.446ZM407.533 11.8959L411.444 12.7336L413.119 4.91098L409.208 4.07329L407.533 11.8959ZM382.398 -0.623337L378.435 -1.16541L377.351 6.76079L381.314 7.30286L382.398 -0.623337ZM345.951 4.24519L349.949 4.39238L350.243 -3.60221L346.246 -3.74939L345.951 4.24519ZM318.985 -3.7494L314.987 -3.60221L315.282 4.39237L319.279 4.24519L318.985 -3.7494ZM283.916 7.30285L287.879 6.76078L286.795 -1.16542L282.832 -0.623352L283.916 7.30285ZM256.022 4.07327L252.111 4.91096L253.786 12.7336L257.698 11.8959L256.022 4.07327ZM223.411 21.0611L227.219 19.8353L224.767 12.2202L220.96 13.446L223.411 21.0611ZM195.376 22.7605L191.671 24.2696L194.689 31.6784L198.394 30.1694L195.376 22.7605ZM166.238 45.1888L169.773 43.3167L166.029 36.247L162.494 38.1191L166.238 45.1888ZM138.93 51.7528L135.545 53.8841L139.808 60.6539L143.192 58.5226L138.93 51.7528ZM114.134 78.9059L117.291 76.449L112.377 70.136L109.22 72.593L114.134 78.9059ZM88.3768 90.1007L85.4117 92.7855L90.7814 98.7157L93.7465 96.0309L88.3768 90.1007ZM68.6461 121.131L71.3309 118.166L65.4007 112.797L62.7159 115.762L68.6461 121.131ZM45.2082 136.605L42.7512 139.762L49.0642 144.676L51.5211 141.519L45.2082 136.605ZM31.1377 170.577L33.269 167.192L26.4992 162.93L24.3679 166.315L31.1377 170.577ZM10.7342 189.879L8.86214 193.414L15.9319 197.158L17.804 193.623L10.7342 189.879ZM2.78453 225.778L4.29356 222.074L-3.11531 219.056L-4.62434 222.76L2.78453 225.778ZM-13.9388 248.345L-15.1647 252.152L-7.54957 254.604L-6.32376 250.796L-13.9388 248.345ZM-15.489 285.083L-14.6513 281.171L-22.4739 279.496L-23.3116 283.407L-15.489 285.083ZM-28.0082 310.217L-28.5503 314.18L-20.6241 315.264L-20.082 311.301L-28.0082 310.217ZM-23.1397 346.664L-22.9925 342.666L-30.9871 342.372L-31.1343 346.369L-23.1397 346.664ZM-31.1343 373.63L-30.9871 377.628L-22.9925 377.333L-23.1397 373.336L-31.1343 373.63ZM-20.082 408.699L-20.6241 404.736L-28.5503 405.82L-28.0082 409.783L-20.082 408.699ZM-23.3116 436.593L-22.4739 440.504L-14.6513 438.829L-15.489 434.917L-23.3116 436.593ZM-6.32377 469.204L-7.54958 465.396L-15.1647 467.848L-13.9389 471.655L-6.32377 469.204ZM-4.62437 497.239L-3.11534 500.944L4.29353 497.926L2.7845 494.221L-4.62437 497.239ZM17.8039 526.377L15.9318 522.842L8.8621 526.586L10.7342 530.121L17.8039 526.377ZM24.3679 553.685L26.4992 557.07L33.269 552.807L31.1377 549.423L24.3679 553.685ZM51.5211 578.481L49.0641 575.324L42.7511 580.238L45.2081 583.395L51.5211 578.481ZM62.7158 604.238L65.4006 607.203L71.3308 601.834L68.646 598.869L62.7158 604.238ZM93.7464 623.969L90.7813 621.284L85.4116 627.214L88.3767 629.899L93.7464 623.969ZM109.22 647.407L112.377 649.864L117.291 643.551L114.134 641.094L109.22 647.407ZM143.192 661.477L139.807 659.346L135.545 666.116L138.93 668.247L143.192 661.477ZM162.494 681.881L166.029 683.753L169.773 676.683L166.238 674.811L162.494 681.881ZM198.394 689.831L194.689 688.322L191.671 695.73L195.376 697.239L198.394 689.831ZM220.96 706.554L224.767 707.78L227.219 700.165L223.411 698.939L220.96 706.554ZM257.698 708.104L253.786 707.266L252.111 715.089L256.022 715.927L257.698 708.104ZM282.832 720.623L286.795 721.165L287.879 713.239L283.916 712.697L282.832 720.623ZM319.279 715.755L315.281 715.608L314.987 723.602L318.984 723.749L319.279 715.755ZM346.246 723.749L350.243 723.602L349.949 715.608L345.951 715.755L346.246 723.749ZM381.314 712.697L377.351 713.239L378.435 721.165L382.398 720.623L381.314 712.697ZM409.208 715.927L413.119 715.089L411.444 707.266L407.532 708.104L409.208 715.927ZM441.819 698.939L438.011 700.165L440.463 707.78L444.27 706.554L441.819 698.939ZM469.855 697.239L473.559 695.73L470.541 688.321L466.836 689.831L469.855 697.239ZM498.992 674.811L495.457 676.683L499.201 683.753L502.736 681.881L498.992 674.811ZM526.3 668.247L529.685 666.116L525.423 659.346L522.038 661.477L526.3 668.247ZM551.096 641.094L547.939 643.551L552.853 649.864L556.01 647.407L551.096 641.094ZM576.853 629.899L579.818 627.214L574.449 621.284L571.484 623.969L576.853 629.899ZM596.584 598.869L593.899 601.834L599.829 607.203L602.514 604.238L596.584 598.869ZM620.022 583.395L622.479 580.238L616.166 575.324L613.709 578.481L620.022 583.395ZM634.092 549.423L631.961 552.808L638.731 557.07L640.862 553.685L634.092 549.423ZM654.496 530.121L656.368 526.586L649.298 522.842L647.426 526.377L654.496 530.121ZM662.446 494.221L660.937 497.926L668.345 500.944L669.855 497.24L662.446 494.221ZM679.169 471.655L680.395 467.848L672.78 465.396L671.554 469.204L679.169 471.655ZM680.719 434.917L679.881 438.829L687.704 440.504L688.542 436.593L680.719 434.917ZM693.238 409.783L693.78 405.82L685.854 404.736L685.312 408.699L693.238 409.783ZM688.37 373.336L688.223 377.334L696.217 377.628L696.364 373.631L688.37 373.336ZM696.615 360C696.615 355.437 696.531 350.893 696.364 346.369L688.37 346.664C688.533 351.089 688.615 355.535 688.615 360L696.615 360ZM693.238 310.217C692.001 301.17 690.431 292.23 688.542 283.407L680.719 285.083C682.567 293.71 684.102 302.453 685.312 311.301L693.238 310.217ZM679.169 248.345C676.376 239.67 673.267 231.137 669.855 222.76L662.446 225.779C665.783 233.97 668.823 242.314 671.554 250.796L679.169 248.345ZM654.496 189.879C650.239 181.841 645.69 173.981 640.862 166.315L634.092 170.577C638.814 178.076 643.263 185.762 647.426 193.623L654.496 189.879ZM620.022 136.605C614.444 129.438 608.603 122.486 602.514 115.762L596.584 121.131C602.54 127.708 608.253 134.509 613.709 141.519L620.022 136.605ZM576.853 90.1008C570.129 84.0123 563.177 78.1716 556.01 72.5931L551.096 78.906C558.106 84.3625 564.907 90.0755 571.484 96.031L576.853 90.1008ZM526.3 51.7528C518.634 46.9255 510.774 42.3762 502.736 38.1191L498.992 45.1889C506.853 49.3521 514.54 53.8013 522.038 58.5226L526.3 51.7528ZM469.855 22.7606C461.478 19.3482 452.945 16.2388 444.271 13.446L441.819 21.0611C450.301 23.792 458.645 26.8325 466.837 30.1694L469.855 22.7606ZM409.208 4.07329C400.385 2.18378 391.445 0.614012 382.398 -0.623337L381.314 7.30286C390.162 8.513 398.905 10.0482 407.533 11.8959L409.208 4.07329ZM346.246 -3.74939C341.723 -3.91594 337.179 -3.99994 332.615 -3.99994L332.615 4.00006C337.08 4.00006 341.526 4.08225 345.951 4.24519L346.246 -3.74939ZM332.615 -3.99994C328.052 -3.99994 323.508 -3.91594 318.985 -3.7494L319.279 4.24519C323.704 4.08225 328.15 4.00006 332.615 4.00006L332.615 -3.99994ZM282.832 -0.623352C273.786 0.613995 264.845 2.18376 256.022 4.07327L257.698 11.8959C266.325 10.0481 275.069 8.51298 283.916 7.30285L282.832 -0.623352ZM220.96 13.446C212.285 16.2388 203.752 19.3482 195.376 22.7605L198.394 30.1694C206.585 26.8325 214.929 23.792 223.411 21.0611L220.96 13.446ZM162.494 38.1191C154.456 42.3762 146.596 46.9255 138.93 51.7528L143.192 58.5226C150.691 53.8013 158.377 49.3521 166.238 45.1888L162.494 38.1191ZM109.22 72.593C102.053 78.1715 95.1009 84.0122 88.3768 90.1007L93.7465 96.0309C100.324 90.0754 107.124 84.3624 114.134 78.9059L109.22 72.593ZM62.7159 115.762C56.6274 122.486 50.7867 129.438 45.2082 136.605L51.5211 141.519C56.9776 134.509 62.6906 127.708 68.6461 121.131L62.7159 115.762ZM24.3679 166.315C19.5406 173.981 14.9913 181.841 10.7342 189.879L17.804 193.623C21.9672 185.762 26.4164 178.076 31.1377 170.577L24.3679 166.315ZM-4.62434 222.76C-8.03671 231.137 -11.1461 239.67 -13.9388 248.345L-6.32376 250.796C-3.59287 242.314 -0.552344 233.97 2.78453 225.778L-4.62434 222.76ZM-23.3116 283.407C-25.2011 292.23 -26.7709 301.17 -28.0082 310.217L-20.082 311.301C-18.8719 302.453 -17.3367 293.71 -15.489 285.083L-23.3116 283.407ZM-31.1343 346.369C-31.3008 350.892 -31.3848 355.436 -31.3848 360L-23.3848 360C-23.3848 355.535 -23.3026 351.089 -23.1397 346.664L-31.1343 346.369ZM-31.3848 360C-31.3848 364.563 -31.3008 369.107 -31.1343 373.63L-23.1397 373.336C-23.3026 368.911 -23.3848 364.465 -23.3848 360L-31.3848 360ZM-28.0082 409.783C-26.7709 418.83 -25.2011 427.77 -23.3116 436.593L-15.489 434.917C-17.3367 426.29 -18.8719 417.546 -20.082 408.699L-28.0082 409.783ZM-13.9389 471.655C-11.1461 480.33 -8.03673 488.863 -4.62437 497.239L2.7845 494.221C-0.552369 486.03 -3.59289 477.686 -6.32377 469.204L-13.9389 471.655ZM10.7342 530.121C14.9913 538.159 19.5406 546.019 24.3679 553.685L31.1377 549.423C26.4164 541.924 21.9672 534.238 17.8039 526.377L10.7342 530.121ZM45.2081 583.395C50.7867 590.562 56.6274 597.514 62.7158 604.238L68.646 598.869C62.6906 592.291 56.9776 585.491 51.5211 578.481L45.2081 583.395ZM88.3767 629.899C95.1008 635.988 102.053 641.828 109.22 647.407L114.134 641.094C107.124 635.637 100.323 629.924 93.7464 623.969L88.3767 629.899ZM138.93 668.247C146.596 673.074 154.456 677.624 162.494 681.881L166.238 674.811C158.377 670.648 150.691 666.199 143.192 661.477L138.93 668.247ZM195.376 697.239C203.752 700.652 212.285 703.761 220.96 706.554L223.411 698.939C214.929 696.208 206.585 693.167 198.394 689.831L195.376 697.239ZM256.022 715.927C264.845 717.816 273.785 719.386 282.832 720.623L283.916 712.697C275.068 711.487 266.325 709.952 257.698 708.104L256.022 715.927ZM318.984 723.749C323.508 723.916 328.052 724 332.615 724L332.615 716C328.15 716 323.704 715.918 319.279 715.755L318.984 723.749ZM332.615 724C337.178 724 341.722 723.916 346.246 723.749L345.951 715.755C341.526 715.918 337.08 716 332.615 716L332.615 724ZM382.398 720.623C391.445 719.386 400.385 717.816 409.208 715.927L407.532 708.104C398.905 709.952 390.162 711.487 381.314 712.697L382.398 720.623ZM444.27 706.554C452.945 703.761 461.478 700.652 469.855 697.239L466.836 689.831C458.645 693.167 450.301 696.208 441.819 698.939L444.27 706.554ZM502.736 681.881C510.774 677.624 518.634 673.074 526.3 668.247L522.038 661.477C514.539 666.199 506.853 670.648 498.992 674.811L502.736 681.881ZM556.01 647.407C563.177 641.828 570.129 635.988 576.853 629.899L571.484 623.969C564.907 629.924 558.106 635.637 551.096 641.094L556.01 647.407ZM602.514 604.238C608.603 597.514 614.443 590.562 620.022 583.395L613.709 578.481C608.253 585.491 602.54 592.292 596.584 598.869L602.514 604.238ZM640.862 553.685C645.69 546.019 650.239 538.159 654.496 530.121L647.426 526.377C643.263 534.238 638.814 541.924 634.092 549.423L640.862 553.685ZM669.855 497.24C673.267 488.863 676.376 480.33 679.169 471.655L671.554 469.204C668.823 477.686 665.783 486.03 662.446 494.221L669.855 497.24ZM688.542 436.593C690.431 427.77 692.001 418.83 693.238 409.783L685.312 408.699C684.102 417.547 682.567 426.29 680.719 434.917L688.542 436.593ZM696.364 373.631C696.531 369.108 696.615 364.563 696.615 360L688.615 360C688.615 364.465 688.533 368.911 688.37 373.336L696.364 373.631Z" fill="#5951FF" mask="url(#path-1-inside-1_679_34339)"/>
<g clip-path="url(#clip0_679_34339)">
<g style="mix-blend-mode:multiply" opacity="0.3">
<path d="M324.454 360.02C324.454 162.496 164.59 2.3778 -32.6044 2.37778C-229.799 2.37776 -389.662 162.496 -389.662 360.02C-389.662 557.544 -229.799 717.662 -32.6045 717.662C164.59 717.663 324.454 557.544 324.454 360.02Z" fill="#5951FF"/>
<path d="M324.454 360.02C324.454 162.496 164.59 2.3778 -32.6044 2.37778C-229.799 2.37776 -389.662 162.496 -389.662 360.02C-389.662 557.544 -229.799 717.662 -32.6045 717.662C164.59 717.663 324.454 557.544 324.454 360.02Z" stroke="#5951FF" stroke-width="4.67506"/>
</g>
</g>
<defs>
<clipPath id="clip0_679_34339">
<rect width="718.791" height="719.96" fill="white" transform="translate(326.791 720) rotate(-180)"/>
</clipPath>
</defs>
</svg>
