<svg width="170" height="37" viewBox="0 0 170 37" fill="none" xmlns="http://www.w3.org/2000/svg">
<path d="M0.0283203 0.541016H12.2531C20.0114 0.541016 25.0147 6.85235 25.0147 15.5023C25.0147 20.2614 23.4246 24.4383 20.376 27.0221C17.9349 28.9732 14.8792 29.9737 11.767 29.8407H0.0283203V0.541016ZM11.3618 24.7243C16.8817 24.7243 19.039 21.3235 19.039 15.533C19.039 9.74249 16.5171 5.65749 11.5239 5.65749H5.92296V24.7549L11.3618 24.7243Z" fill="white"/>
<path d="M25.8955 19.3525C25.8955 16.4408 27.0426 13.6484 29.0845 11.5895C31.1264 9.53068 33.8957 8.37402 36.7834 8.37402C39.671 8.37402 42.4404 9.53068 44.4823 11.5895C46.5241 13.6484 47.6712 16.4408 47.6712 19.3525C47.6712 25.623 43.2452 30.4637 36.7834 30.4637C30.3216 30.4637 25.8955 25.6638 25.8955 19.3525ZM42.1007 19.3525C42.1007 15.2675 40.1865 12.4692 36.8138 12.4692C33.4411 12.4692 31.5268 15.2573 31.5268 19.3525C31.5268 23.4477 33.4005 26.1949 36.8138 26.1949C40.227 26.1949 42.0703 23.4579 42.0703 19.3525H42.1007Z" fill="white"/>
<path d="M48.8174 19.3527C48.8174 13.0822 52.8788 8.30273 59.209 8.30273C64.6073 8.30273 67.9496 11.4584 68.6789 16.003H63.2603C63.1146 15.0913 62.6488 14.2629 61.9479 13.6686C61.247 13.0743 60.3576 12.7538 59.4419 12.7656C56.1097 12.7656 54.3778 15.3494 54.3778 19.4037C54.3778 23.4581 55.9679 26.0419 59.3406 26.0419C60.3637 26.1267 61.3784 25.7993 62.1624 25.1312C62.9465 24.4631 63.4359 23.509 63.5236 22.4777H68.8511C68.4864 26.9508 65.0327 30.515 59.4622 30.515C52.9193 30.4639 48.8174 25.664 48.8174 19.3527Z" fill="white"/>
<path d="M83.5157 29.8406V27.3896H83.3941C82.7516 28.3834 81.8613 29.1895 80.8126 29.7272C79.7638 30.2649 78.5934 30.5153 77.4185 30.4533C72.7797 30.4533 70.1768 27.4611 70.1768 22.8654V8.82324H75.6663V21.8953C75.6663 24.3565 76.7703 25.7045 79.12 25.7045C81.723 25.7045 83.3131 23.7437 83.3131 20.9557V8.82324H88.833V29.8406H83.5157Z" fill="white"/>
<path d="M115.755 0.673828H121.275V5.88221H115.755V0.673828ZM115.755 8.84384H121.275V29.8408H115.755V8.84384Z" fill="white"/>
<path d="M123.572 30.4634H129.092C129.538 31.7706 130.713 32.7918 133.275 32.7918C136.405 32.7918 137.904 31.2804 137.904 28.4107V26.1129H137.782C137.126 26.9189 136.293 27.5605 135.35 27.9876C134.406 28.4146 133.377 28.6153 132.344 28.5741C127.705 28.5741 123.157 24.8874 123.157 18.5352C123.157 12.183 126.864 8.30223 132.131 8.30223C133.246 8.24653 134.357 8.47236 135.363 8.95922C136.369 9.44607 137.239 10.1786 137.894 11.0902H137.975V8.82307H143.302V28.2268C143.373 29.4102 143.188 30.5949 142.76 31.6989C142.331 32.8029 141.67 33.7996 140.821 34.6199C139.079 36.2539 136.395 36.9994 133.306 36.9994C127.634 37.0198 124.14 34.5586 123.572 30.4634ZM138.208 18.4126C138.208 15.3489 136.577 12.714 133.245 12.714C130.439 12.714 128.576 14.9301 128.576 18.4535C128.576 21.9768 130.439 24.1112 133.285 24.1112C136.739 24.1112 138.208 21.5785 138.208 18.4126Z" fill="white"/>
<path d="M151.091 11.6928H151.212C151.83 10.6029 152.733 9.70535 153.823 9.09833C154.912 8.49131 156.147 8.19824 157.391 8.25121C161.705 8.25121 164.592 11.5294 164.592 16.1148V29.8405H159.062V16.9421C159.062 14.6851 157.765 13.0817 155.446 13.0817C153.127 13.0817 151.212 15.0527 151.212 17.9225V29.8405H145.692V8.82311H151.091V11.6928Z" fill="white"/>
<path d="M103.155 12.1835C98.8501 11.244 96.8143 10.5495 96.8143 8.17001C96.8143 6.12751 98.8906 4.72839 102.061 4.72839C104.957 4.72839 107.125 6.09687 107.621 8.8134H113.283C112.706 3.12503 108.523 0 102.142 0C95.761 0 91.0007 2.99226 91.0007 8.77255C91.0007 14.9001 95.761 16.2685 100.967 17.4634C105.393 18.4847 108.158 19.0566 108.158 21.9263C108.158 24.6326 105.514 25.6947 102.506 25.6947C98.3639 25.6947 96.3687 24.3058 95.9635 20.7825H90.1904C90.393 26.9713 94.8697 30.4946 102.749 30.4946C109.292 30.4946 114.053 27.1755 114.053 21.2318C114.012 14.9307 109.13 13.4907 103.155 12.1835Z" fill="white"/>
<path d="M166.83 12.7047C166.395 12.7047 165.97 12.5747 165.609 12.3312C165.247 12.0877 164.965 11.7416 164.799 11.3366C164.633 10.9317 164.589 10.4861 164.674 10.0562C164.759 9.62635 164.968 9.23148 165.276 8.92155C165.583 8.61162 165.975 8.40055 166.401 8.31504C166.827 8.22953 167.269 8.27342 167.671 8.44115C168.072 8.60889 168.416 8.89293 168.657 9.25737C168.899 9.62181 169.027 10.0503 169.027 10.4886C169.027 11.0763 168.796 11.64 168.384 12.0556C167.972 12.4712 167.413 12.7047 166.83 12.7047ZM166.83 8.61969C166.463 8.61969 166.105 8.7293 165.8 8.93465C165.495 9.14001 165.258 9.43189 165.117 9.77338C164.977 10.1149 164.94 10.4907 165.012 10.8532C165.083 11.2157 165.26 11.5487 165.519 11.8101C165.778 12.0715 166.109 12.2494 166.468 12.3216C166.828 12.3937 167.2 12.3567 167.539 12.2152C167.878 12.0738 168.167 11.8342 168.371 11.5269C168.574 11.2195 168.683 10.8582 168.683 10.4886C168.683 10.2432 168.635 10.0001 168.542 9.77338C168.449 9.54664 168.312 9.34061 168.14 9.16707C167.968 8.99353 167.764 8.85587 167.539 8.76195C167.314 8.66803 167.073 8.61969 166.83 8.61969Z" fill="white"/>
<path d="M166.081 9.32363H166.79C167.035 9.2903 167.284 9.34842 167.489 9.48703C167.57 9.55308 167.636 9.63721 167.68 9.73287C167.723 9.82853 167.745 9.93313 167.742 10.0385C167.748 10.1776 167.707 10.3146 167.626 10.4275C167.545 10.5404 167.429 10.6228 167.296 10.6615L167.793 11.5806H167.317L166.871 10.7432H166.496V11.5806H166.081V9.32363ZM166.496 9.68107V10.3959H166.922C166.97 10.4017 167.019 10.3971 167.066 10.3822C167.113 10.3674 167.155 10.3427 167.192 10.3099C167.228 10.2771 167.257 10.2368 167.277 10.1918C167.297 10.1467 167.307 10.098 167.307 10.0487C167.31 9.98641 167.295 9.92444 167.265 9.87015C167.234 9.81586 167.189 9.77151 167.134 9.74234C166.987 9.71208 166.836 9.71208 166.689 9.74234L166.496 9.68107Z" fill="white"/>
</svg>
