<svg width="174" height="31" viewBox="0 0 174 31" fill="none" xmlns="http://www.w3.org/2000/svg">
<g clip-path="url(#clip0_1903_2208)">
<path d="M161.171 15.0805C162.273 14.8293 163.424 14.9063 164.482 15.302C165.54 15.6976 166.458 16.3945 167.121 17.3056L156.823 19.6246C157.178 17.4546 158.841 15.6049 161.171 15.0805ZM167.178 23.6141C166.364 24.7876 165.134 25.6116 163.736 25.9211C161.391 26.4498 159.05 25.4819 157.761 23.6598L168.09 21.3331L169.773 20.9542L172.99 20.23C172.971 19.5418 172.881 18.8574 172.722 18.1874C171.413 12.6539 165.754 9.20431 160.083 10.4813C154.412 11.7592 150.876 17.2807 152.185 22.8133C153.494 28.3468 159.153 31.7973 164.824 30.5203C168.165 29.7668 170.765 27.5408 172.069 24.7069L167.178 23.6141ZM142.87 30.2404V15.5705H139.69V10.5726H142.87V3.6932H148.271V10.5726H152.328V15.5705H148.271V30.2404H142.87ZM132.553 30.2404H137.768V10.5726H132.553V30.2404ZM131.874 3.67253C131.874 1.85214 133.316 0.486422 135.182 0.486422C137.048 0.486422 138.448 1.85214 138.448 3.67253C138.448 5.49378 137.048 6.89998 135.182 6.89998C133.316 6.89998 131.874 5.49378 131.874 3.67253ZM130.737 10.6277C128.07 10.7655 126.498 11.1728 124.898 12.3267V10.5726H119.685V30.2404H124.897V20.5959C124.897 17.5614 125.641 15.8349 130.737 15.6652V10.6277ZM101.672 20.7156C101.802 23.5857 104.311 25.9925 107.383 25.9925C110.499 25.9925 113.051 23.4591 113.051 20.4625C113.051 17.5071 110.499 14.9746 107.383 14.9746C104.312 14.9746 101.802 17.4228 101.672 20.2515V20.7156ZM96.5858 30.2404V1.18823L101.802 0.0136719V12.0365C103.413 10.7534 105.322 10.2153 107.4 10.2153C113.337 10.2153 118.087 14.7671 118.087 20.478C118.087 26.1467 113.338 30.7812 107.4 30.7812C105.322 30.7812 103.413 30.2438 101.802 28.9608V30.2413H96.5858V30.2404ZM85.4836 30.2404V15.4698H82.303V10.5726H85.4836V3.68803L90.8846 2.47128V10.5726H94.9415V15.4698H90.8846V30.2404H85.4836ZM75.9253 30.2404V19.7323C75.9253 15.9253 73.8467 15.0978 71.7681 15.0978C69.6904 15.0978 67.6127 15.8839 67.6127 19.6496V30.2404H62.3967V10.5726H67.6127V12.0356C68.7571 11.2081 70.1566 10.2144 72.9143 10.2144C77.324 10.2144 81.1413 12.7392 81.1413 18.9047V30.2404H75.9253ZM49.1873 15.0805C51.5176 14.5553 53.8427 15.5068 55.1368 17.3056L44.8398 19.6246C45.1945 17.4546 46.8579 15.6049 49.1873 15.0805ZM55.1947 23.6141C54.3803 24.7876 53.1507 25.6116 51.752 25.9211C50.6432 26.1739 49.4839 26.094 48.4206 25.6916C47.3573 25.2891 46.4375 24.5821 45.7775 23.6598L56.1073 21.3331L57.7897 20.9542L61.0067 20.23C60.9872 19.5418 60.8973 18.8574 60.7385 18.1874C59.4289 12.6539 53.7701 9.20431 48.0991 10.4813C42.4282 11.7592 38.8921 17.2807 40.2017 22.8133C41.5113 28.3468 47.1693 31.7973 52.8411 30.5203C56.1826 29.7668 58.7819 27.5408 60.0854 24.7069L55.1947 23.6141ZM27.9144 30.2404L19.8136 10.5726H25.4967L30.6287 23.9112L35.8023 10.5726H41.4853L33.3855 30.2404H27.9144ZM9.58673 15.0754C10.6885 14.8241 11.8401 14.901 12.8982 15.2967C13.9563 15.6924 14.874 16.3892 15.5371 17.3005L5.23924 19.6203C5.59389 17.4503 7.25729 15.6006 9.58673 15.0754ZM15.5942 23.609C14.7799 24.7828 13.5503 25.6071 12.1515 25.9168C9.80731 26.4446 7.46662 25.4776 6.1769 23.6555L16.5067 21.3288L18.1892 20.9499L21.4061 20.2248C21.3865 19.537 21.2966 18.8529 21.1379 18.1831C19.8283 12.6496 14.1704 9.19914 8.49856 10.4762C2.82762 11.7541 -0.706765 17.2764 0.601115 22.8099C1.91072 28.3434 7.56955 31.793 13.2405 30.5159C16.582 29.7633 19.1813 27.5365 20.4857 24.7034L15.5942 23.6098V23.609Z" fill="white"/>
</g>
<defs>
<clipPath id="clip0_1903_2208">
<rect width="173" height="31" fill="white" transform="translate(0.0283203)"/>
</clipPath>
</defs>
</svg>
