<svg width="56" height="58" viewBox="0 0 56 58" fill="none" xmlns="http://www.w3.org/2000/svg">
<path d="M28 35.5C30.7614 35.5 33 33.2614 33 30.5C33 27.7386 30.7614 25.5 28 25.5C25.2386 25.5 23 27.7386 23 30.5C23 33.2614 25.2386 35.5 28 35.5Z" stroke="#5951FF" stroke-width="1.5" stroke-linecap="round" stroke-linejoin="round"/>
<path d="M36.5 27.5C37.6647 27.4981 38.8137 27.7683 39.8554 28.2892C40.8972 28.81 41.8028 29.5671 42.5 30.5" stroke="#5951FF" stroke-width="1.5" stroke-linecap="round" stroke-linejoin="round"/>
<path d="M13.5 30.5C14.1972 29.5671 15.1028 28.81 16.1446 28.2892C17.1863 27.7683 18.3353 27.4981 19.5 27.5" stroke="#5951FF" stroke-width="1.5" stroke-linecap="round" stroke-linejoin="round"/>
<path d="M20.8008 40.0002C21.4593 38.6516 22.4834 37.515 23.7563 36.72C25.0293 35.9249 26.5 35.5034 28.0008 35.5034C29.5016 35.5034 30.9723 35.9249 32.2452 36.72C33.5182 37.515 34.5423 38.6516 35.2008 40.0002" stroke="#5951FF" stroke-width="1.5" stroke-linecap="round" stroke-linejoin="round"/>
<path d="M19.5002 27.5C18.741 27.5008 17.9972 27.2855 17.3558 26.8792C16.7145 26.473 16.2019 25.8927 15.8781 25.206C15.5543 24.5193 15.4327 23.7546 15.5273 23.0014C15.6219 22.2481 15.929 21.5373 16.4126 20.9521C16.8962 20.3668 17.5364 19.9313 18.2583 19.6963C18.9802 19.4614 19.7541 19.4368 20.4895 19.6253C21.2249 19.8139 21.8915 20.2078 22.4113 20.7611C22.9312 21.3144 23.2828 22.0043 23.4252 22.75" stroke="#5951FF" stroke-width="1.5" stroke-linecap="round" stroke-linejoin="round"/>
<path d="M32.5742 22.75C32.7166 22.0043 33.0682 21.3144 33.588 20.7611C34.1079 20.2078 34.7744 19.8139 35.5099 19.6253C36.2453 19.4368 37.0191 19.4614 37.7411 19.6963C38.463 19.9313 39.1032 20.3668 39.5868 20.9521C40.0704 21.5373 40.3774 22.2481 40.4721 23.0014C40.5667 23.7546 40.445 24.5193 40.1212 25.206C39.7974 25.8927 39.2849 26.473 38.6435 26.8792C38.0022 27.2855 37.2584 27.5008 36.4992 27.5" stroke="#5951FF" stroke-width="1.5" stroke-linecap="round" stroke-linejoin="round"/>
<rect x="0.75" y="0.75" width="54.5" height="56.5" rx="27.25" stroke="#5951FF" stroke-width="1.5"/>
</svg>
