<svg width="56" height="58" viewBox="0 0 56 58" fill="none" xmlns="http://www.w3.org/2000/svg">
<path d="M31 28H29V20H30C31.0599 20.0033 32.0754 20.4258 32.8248 21.1752C33.5742 21.9246 33.9967 22.9401 34 24C34 24.2652 34.1054 24.5196 34.2929 24.7071C34.4804 24.8946 34.7348 25 35 25C35.2652 25 35.5196 24.8946 35.7071 24.7071C35.8946 24.5196 36 24.2652 36 24C36 22.4087 35.3679 20.8826 34.2426 19.7574C33.1174 18.6321 31.5913 18 30 18H29V16C29 15.7348 28.8946 15.4804 28.7071 15.2929C28.5196 15.1054 28.2652 15 28 15C27.7348 15 27.4804 15.1054 27.2929 15.2929C27.1054 15.4804 27 15.7348 27 16V18H25.5C23.9087 18 22.3826 18.6321 21.2574 19.7574C20.1321 20.8826 19.5 22.4087 19.5 24C19.5 25.5913 20.1321 27.1174 21.2574 28.2426C22.3826 29.3679 23.9087 30 25.5 30H27V38H25C23.9401 37.9967 22.9246 37.5742 22.1752 36.8248C21.4258 36.0754 21.0033 35.0599 21 34C21 33.7348 20.8946 33.4804 20.7071 33.2929C20.5196 33.1054 20.2652 33 20 33C19.7348 33 19.4804 33.1054 19.2929 33.2929C19.1054 33.4804 19 33.7348 19 34C19 35.5913 19.6321 37.1174 20.7574 38.2426C21.8826 39.3679 23.4087 40 25 40H27V42C27 42.2652 27.1054 42.5196 27.2929 42.7071C27.4804 42.8946 27.7348 43 28 43C28.2652 43 28.5196 42.8946 28.7071 42.7071C28.8946 42.5196 29 42.2652 29 42V40H31C32.5913 40 34.1174 39.3679 35.2426 38.2426C36.3679 37.1174 37 35.5913 37 34C37 32.4087 36.3679 30.8826 35.2426 29.7574C34.1174 28.6321 32.5913 28 31 28ZM27 28H25.5C24.4391 28 23.4217 27.5786 22.6716 26.8284C21.9214 26.0783 21.5 25.0609 21.5 24C21.5 22.9391 21.9214 21.9217 22.6716 21.1716C23.4217 20.4214 24.4391 20 25.5 20H27V28ZM31 38H29V30H31C32.0609 30 33.0783 30.4214 33.8284 31.1716C34.5786 31.9217 35 32.9391 35 34C35 35.0609 34.5786 36.0783 33.8284 36.8284C33.0783 37.5786 32.0609 38 31 38Z" fill="#5951FF"/>
<rect x="0.75" y="0.75" width="54.5" height="56.5" rx="27.25" stroke="#5951FF" stroke-width="1.5"/>
</svg>
