<svg width="172" height="41" viewBox="0 0 172 41" fill="none" xmlns="http://www.w3.org/2000/svg">
<g clip-path="url(#clip0_1903_2210)">
<path d="M34.6564 31.3648L26.1289 26.4254C24.9309 25.7339 23.399 26.1452 22.7056 27.3463C22.437 27.8195 22.3317 28.34 22.3825 28.846V38.499C22.3825 39.8786 23.5006 40.9997 24.8801 40.9997C26.256 40.9997 27.3741 39.8786 27.3741 38.499V32.9482L32.1515 35.7145C33.3495 36.4097 34.8851 35.9948 35.5749 34.7936C36.2683 33.5924 35.858 32.0564 34.6564 31.3648Z" fill="white"/>
<path d="M13.4493 20.7804C13.4639 19.8886 12.9956 19.0587 12.2259 18.611L3.69845 13.6752C3.32816 13.4605 2.90342 13.3477 2.47868 13.3477C1.60379 13.3477 0.790607 13.8172 0.354975 14.5743C-0.320254 15.7464 0.0827056 17.2496 1.25165 17.9267L6.16703 20.7694L1.25165 23.6159C0.685329 23.9434 0.278739 24.4712 0.111748 25.1046C-0.0588749 25.7379 0.0282515 26.4004 0.354975 26.9682C0.790607 27.7253 1.60379 28.1949 2.47505 28.1949C2.90342 28.1949 3.32816 28.082 3.69845 27.8673L12.2259 22.9316C12.9883 22.4875 13.4566 21.6649 13.4493 20.7804Z" fill="white"/>
<path d="M5.63272 10.1773L14.1602 15.113C15.1549 15.6918 16.3819 15.5025 17.1661 14.7345C17.6634 14.2758 17.972 13.6207 17.972 12.8927V2.99938C17.972 1.61621 16.8539 0.495117 15.478 0.495117C14.0985 0.495117 12.9804 1.61621 12.9804 2.99938V8.63033L8.1376 5.82759C6.93961 5.13237 5.40764 5.54368 4.71426 6.74485C4.02088 7.94602 4.43473 9.48207 5.63272 10.1773Z" fill="white"/>
<path d="M24.8087 21.1804C24.8087 21.3697 24.6998 21.6317 24.5655 21.7701L21.1857 25.1588C21.0514 25.2935 20.7863 25.4027 20.5976 25.4027H19.7372C19.5484 25.4027 19.2834 25.2935 19.1491 25.1588L15.7657 21.7701C15.6314 21.6317 15.5225 21.3697 15.5225 21.1804V20.3177C15.5225 20.1248 15.6314 19.8627 15.7657 19.7281L19.1491 16.3357C19.2834 16.201 19.5484 16.0918 19.7372 16.0918H20.5976C20.7863 16.0918 21.0514 16.201 21.1857 16.3357L24.5655 19.7281C24.6998 19.8627 24.8087 20.1248 24.8087 20.3177V21.1804ZM21.7919 20.7654V20.729C21.7919 20.5907 21.7121 20.3978 21.614 20.2959L20.6157 19.2986C20.5177 19.1966 20.3253 19.1166 20.1837 19.1166H20.1474C20.0095 19.1166 19.8171 19.1966 19.7154 19.2986L18.7207 20.2959C18.6227 20.3942 18.5428 20.5871 18.5428 20.729V20.7654C18.5428 20.9074 18.6227 21.1003 18.7207 21.1986L19.7154 22.1996C19.8171 22.2979 20.0095 22.3779 20.1474 22.3779H20.1837C20.3253 22.3779 20.5177 22.2979 20.6157 22.1996L21.614 21.1986C21.7121 21.1003 21.7919 20.9074 21.7919 20.7654Z" fill="white"/>
<path d="M26.1299 15.113L34.6574 10.1773C35.8554 9.48571 36.2692 7.94602 35.5758 6.74485C34.8825 5.54368 33.3505 5.13237 32.1525 5.82759L27.3751 8.59393V2.99938C27.3751 1.61621 26.2569 0.495117 24.8811 0.495117C23.5016 0.495117 22.3835 1.61621 22.3835 2.99938V12.6961C22.3363 13.1984 22.4343 13.7226 22.7065 14.1958C23.3999 15.3969 24.9319 15.8082 26.1299 15.113Z" fill="white"/>
<path d="M15.8701 26.1351C15.3037 26.0259 14.6975 26.1169 14.1602 26.4263L5.63272 31.3657C4.43473 32.0573 4.02088 33.5933 4.71426 34.7945C5.40764 35.9993 6.93961 36.4106 8.1376 35.7154L12.9804 32.9127V38.4999C12.9804 39.8794 14.0985 41.0005 15.478 41.0005C16.8539 41.0005 17.972 39.8794 17.972 38.4999V28.6066C17.972 27.3581 17.0608 26.3244 15.8701 26.1351Z" fill="white"/>
<path d="M39.9858 14.545C39.2961 13.3402 37.7605 12.9289 36.5625 13.6241L28.035 18.5599C27.2182 19.0331 26.768 19.8994 26.7826 20.7802C26.7753 21.6574 27.2255 22.5128 28.035 22.9787L36.5625 27.9181C37.7605 28.6097 39.2925 28.1984 39.9858 26.9972C40.6792 25.796 40.2654 24.26 39.0674 23.5648L34.2391 20.7693L39.0674 17.9738C40.269 17.2823 40.6792 15.7462 39.9858 14.545Z" fill="white"/>
<path d="M171.024 20.1908V20.1944V20.2854C171.024 20.7513 170.636 21.0971 170.156 21.0971H158.177C158.198 21.381 158.235 21.6577 158.293 21.9307C158.848 24.5332 161.07 26.4696 163.709 26.4915C163.716 26.4915 163.851 26.4915 164.058 26.4915C164.09 26.4915 164.123 26.4915 164.156 26.4915H164.406C164.461 26.4915 164.515 26.4915 164.573 26.4878C164.624 26.4878 164.675 26.4842 164.726 26.4806C164.729 26.4806 164.733 26.4806 164.736 26.4769C165.611 26.4078 166.493 26.0547 167.281 25.4869C167.281 25.4869 167.281 25.4869 167.285 25.4869C167.325 25.4577 167.368 25.425 167.408 25.3922C167.416 25.3886 167.423 25.3813 167.434 25.374C167.466 25.3485 167.503 25.3194 167.539 25.2903C167.554 25.2794 167.564 25.2685 167.579 25.2575C167.608 25.2357 167.637 25.2102 167.666 25.1847C167.684 25.1702 167.706 25.152 167.724 25.1374C167.746 25.1156 167.768 25.0938 167.793 25.0756C167.815 25.0537 167.84 25.0319 167.862 25.01C167.88 24.9955 167.898 24.9773 167.917 24.9591C167.946 24.9336 167.971 24.9081 168 24.8826C168.015 24.8681 168.029 24.8499 168.044 24.8353C168.073 24.8062 168.102 24.7771 168.131 24.748C168.145 24.7334 168.156 24.7225 168.171 24.7079C168.2 24.6752 168.229 24.6424 168.258 24.6096C168.272 24.5987 168.283 24.5842 168.294 24.5696C168.327 24.5368 168.356 24.5041 168.385 24.4713C168.396 24.4568 168.41 24.4422 168.421 24.4276C168.45 24.3912 168.476 24.3585 168.505 24.3257C168.519 24.3075 168.534 24.2893 168.548 24.2711C168.574 24.2384 168.599 24.2093 168.621 24.1801C168.643 24.151 168.661 24.1255 168.679 24.1001C168.697 24.0746 168.715 24.0527 168.733 24.0273C168.762 23.9872 168.791 23.9472 168.817 23.9071C168.828 23.8926 168.835 23.8817 168.842 23.8707C168.915 23.7652 168.984 23.656 169.053 23.5431C169.053 23.5431 169.053 23.5395 169.056 23.5359C169.071 23.5104 169.089 23.4885 169.107 23.4631C169.115 23.4521 169.122 23.4412 169.133 23.4339C169.144 23.4157 169.158 23.4048 169.169 23.3903C169.18 23.3794 169.191 23.3684 169.202 23.3575C169.216 23.3466 169.227 23.3357 169.242 23.3248C169.252 23.3138 169.263 23.3029 169.278 23.2956C169.296 23.2811 169.318 23.2665 169.34 23.2556C169.354 23.2447 169.372 23.2338 169.387 23.2265C169.405 23.2192 169.419 23.2119 169.434 23.2046C169.449 23.1974 169.463 23.1937 169.474 23.1864C169.496 23.1792 169.514 23.1755 169.536 23.1682C169.547 23.1646 169.554 23.161 169.565 23.1573C169.634 23.1428 169.706 23.1318 169.775 23.1318C169.851 23.1318 169.931 23.1428 170.004 23.1646C170.008 23.1646 170.008 23.1646 170.011 23.1646C170.04 23.1755 170.073 23.1828 170.102 23.1974C170.109 23.201 170.116 23.201 170.124 23.2046C170.156 23.2192 170.185 23.2338 170.215 23.252L170.229 23.2592C170.628 23.5504 170.752 24.06 170.509 24.4786L170.505 24.4822C170.476 24.5296 170.447 24.5769 170.418 24.6206C170.411 24.6315 170.403 24.6424 170.396 24.6533C169.547 25.9491 168.392 26.9829 167.103 27.6017C167.074 27.6126 167.049 27.6271 167.02 27.6417C167.016 27.6417 167.009 27.6453 167.005 27.6453C166.41 27.922 165.771 28.1149 165.089 28.195C165.074 28.195 165.06 28.1986 165.045 28.1986C164.987 28.2059 164.929 28.2132 164.871 28.2168C164.838 28.2168 164.805 28.2204 164.769 28.2241C164.729 28.2241 164.686 28.2277 164.646 28.2314C164.566 28.2314 164.486 28.235 164.406 28.235C164.395 28.235 164.094 28.235 163.891 28.235C163.774 28.235 163.709 28.235 163.702 28.235C159.672 28.2059 156.427 24.8353 156.427 20.7077C156.427 16.5108 159.694 13.1221 163.756 13.1221C163.876 13.1221 163.996 13.1257 164.116 13.1294C165.531 13.2021 166.838 13.6863 167.924 14.4798C167.927 14.4834 167.931 14.487 167.935 14.487C167.996 14.5307 168.054 14.578 168.113 14.6217C168.142 14.6472 168.174 14.6727 168.207 14.6982C168.236 14.72 168.265 14.7455 168.294 14.7673C169.822 16.0449 170.853 17.9632 171.024 20.1835V20.1908ZM158.293 19.3827H169.136C168.599 16.762 166.352 14.8656 163.756 14.8656C161.113 14.8656 158.884 16.7256 158.293 19.3827Z" fill="white"/>
<path d="M140.396 13.3769C140.53 13.5115 140.621 13.6935 140.643 13.9047C140.643 13.9338 140.647 13.9629 140.647 13.992V27.3614C140.647 27.8382 140.247 28.235 139.775 28.235C139.303 28.235 138.908 27.8382 138.908 27.3614V25.5851C138.577 25.9855 138.214 26.3495 137.819 26.6662C137.808 26.6771 137.797 26.6844 137.786 26.6953C137.75 26.7244 137.71 26.7536 137.673 26.779C136.475 27.7036 135.02 28.235 133.499 28.235C131.048 28.235 128.892 26.9283 127.607 24.9482C127.596 24.9336 127.581 24.9154 127.57 24.9008C127.534 24.839 127.498 24.7771 127.458 24.7116C127.432 24.6715 127.411 24.6315 127.385 24.5914C127.36 24.5514 127.338 24.5077 127.316 24.464C127.28 24.4022 127.244 24.3366 127.211 24.2748C127.2 24.2529 127.193 24.2311 127.182 24.2093C126.706 23.2629 126.412 22.1964 126.361 21.0644C126.354 20.937 126.351 20.8096 126.351 20.6785C126.351 20.5475 126.354 20.4201 126.361 20.2927C126.412 19.1607 126.706 18.0942 127.182 17.1442C127.193 17.126 127.2 17.1041 127.211 17.0823C127.244 17.0204 127.28 16.9549 127.316 16.893C127.338 16.8493 127.36 16.8057 127.385 16.7656C127.407 16.7256 127.432 16.6855 127.458 16.6455C127.494 16.5836 127.534 16.5181 127.57 16.4562C127.581 16.4417 127.596 16.4235 127.607 16.4089C128.892 14.4288 131.048 13.1221 133.499 13.1221C135.154 13.1221 136.719 13.7299 137.964 14.7892C138.305 15.0767 138.621 15.3934 138.908 15.7428V13.992C138.908 13.9629 138.908 13.9338 138.911 13.9047C138.933 13.6935 139.024 13.5115 139.158 13.3769C139.158 13.3769 139.158 13.3769 139.158 13.3732C139.173 13.3587 139.191 13.3477 139.205 13.3332C139.209 13.3295 139.216 13.3223 139.22 13.3186C139.231 13.3077 139.245 13.3004 139.256 13.2931C139.267 13.2859 139.278 13.2749 139.289 13.2677C139.296 13.264 139.303 13.2604 139.311 13.2531C139.329 13.2458 139.343 13.2349 139.361 13.224C139.365 13.224 139.369 13.2203 139.372 13.2203C139.394 13.2094 139.416 13.1985 139.438 13.1876C139.438 13.1876 139.438 13.1876 139.441 13.1876C139.492 13.1657 139.547 13.1512 139.601 13.1403C139.605 13.1403 139.612 13.1366 139.616 13.1366C139.637 13.133 139.663 13.1294 139.688 13.1257C139.717 13.1257 139.746 13.1221 139.775 13.1221C139.808 13.1221 139.837 13.1257 139.866 13.1257C139.891 13.1294 139.913 13.133 139.939 13.1366C139.942 13.1366 139.946 13.1403 139.953 13.1403C140.008 13.1512 140.062 13.1657 140.113 13.1876H140.117C140.138 13.1985 140.16 13.2094 140.178 13.2203C140.186 13.2203 140.189 13.224 140.193 13.224C140.207 13.2349 140.225 13.2458 140.24 13.2531C140.247 13.2604 140.258 13.264 140.265 13.2677C140.276 13.2749 140.287 13.2859 140.298 13.2931C140.309 13.3004 140.32 13.3077 140.331 13.3186C140.338 13.3223 140.342 13.3295 140.349 13.3332C140.363 13.3477 140.382 13.3587 140.392 13.3732C140.396 13.3769 140.396 13.3769 140.396 13.3769ZM133.499 26.4915C136.479 26.4915 138.908 23.8853 138.908 20.6785C138.908 17.4572 136.479 14.8365 133.499 14.8365C130.54 14.8365 128.089 17.4536 128.089 20.6785C128.089 20.7805 128.093 20.8787 128.097 20.977C128.097 21.0207 128.104 21.0607 128.104 21.1008C128.108 21.159 128.111 21.2172 128.119 21.2718C128.122 21.3192 128.129 21.3628 128.133 21.4065C128.14 21.4575 128.144 21.5121 128.151 21.563C128.158 21.6031 128.166 21.6395 128.169 21.6759C128.18 21.7341 128.188 21.7923 128.198 21.8506C128.206 21.8797 128.213 21.9052 128.217 21.9307C128.231 21.9998 128.246 22.0653 128.26 22.1345C128.264 22.1491 128.267 22.1636 128.275 22.1782C128.892 24.6679 131.012 26.4915 133.499 26.4915Z" fill="white"/>
<path d="M118.574 6.81738H118.338C118.309 6.81738 118.276 6.81738 118.247 6.82102C118.215 6.81738 118.185 6.81738 118.153 6.81738C118.069 6.81738 117.986 6.81738 117.902 6.82102C117.888 6.82102 117.87 6.82466 117.855 6.82466C117.79 6.82466 117.724 6.8283 117.659 6.83558C117.648 6.83558 117.634 6.83558 117.623 6.83558C117.554 6.84286 117.488 6.8465 117.423 6.85378C117.416 6.85742 117.409 6.85742 117.401 6.85742C117.329 6.86834 117.26 6.87562 117.194 6.88654C117.191 6.88654 117.187 6.88654 117.187 6.88654C116.748 6.9557 116.352 7.07946 116 7.25417C116 7.25781 115.996 7.25781 115.993 7.25781C115.942 7.28693 115.888 7.31605 115.837 7.34517C115.826 7.34881 115.819 7.35609 115.808 7.36337C115.764 7.38885 115.721 7.41433 115.677 7.44345C115.659 7.45437 115.644 7.46893 115.63 7.47985C115.593 7.50169 115.561 7.52717 115.524 7.55265C115.499 7.57449 115.474 7.59633 115.448 7.61452C115.426 7.63272 115.405 7.65092 115.383 7.66912C115.343 7.70552 115.307 7.73828 115.27 7.77468C115.263 7.78196 115.256 7.78924 115.249 7.79652C115.205 7.84384 115.161 7.88752 115.118 7.93484C115.111 7.94576 115.103 7.95668 115.096 7.96396C115.06 8.004 115.024 8.04403 114.991 8.08407C114.98 8.10227 114.965 8.12047 114.955 8.13867C114.926 8.17507 114.9 8.20783 114.875 8.24423C114.867 8.25879 114.86 8.26971 114.849 8.28063C114.82 8.32431 114.791 8.36799 114.766 8.41167C114.762 8.41895 114.759 8.42259 114.755 8.42987C114.519 8.81934 114.352 9.27797 114.247 9.83123C114.247 9.83851 114.247 9.84943 114.243 9.85671C114.228 9.92587 114.218 9.99867 114.207 10.0715C114.203 10.0933 114.199 10.1151 114.199 10.137C114.189 10.1989 114.181 10.2607 114.174 10.3263C114.17 10.3627 114.167 10.3991 114.163 10.4391C114.156 10.4901 114.149 10.5374 114.145 10.592C114.141 10.6466 114.138 10.7012 114.134 10.7594C114.13 10.7958 114.13 10.8322 114.127 10.8722C114.123 10.9487 114.12 11.0288 114.116 11.1088C114.116 11.1307 114.112 11.1452 114.112 11.1634C114.109 11.2654 114.109 11.3709 114.109 11.4728V12.9106H112.301C112.188 12.907 112.076 12.9288 111.974 12.9652C111.647 13.0853 111.415 13.3947 111.415 13.7551C111.415 14.0936 111.582 14.3811 111.843 14.5486C111.974 14.6323 112.127 14.6832 112.294 14.6905H112.301V14.6942H114.109V27.3902C114.105 27.4084 114.109 27.4229 114.109 27.4411C114.109 27.4521 114.109 27.463 114.109 27.4739C114.12 27.6777 114.203 27.8634 114.337 28.0053L114.341 28.009C114.359 28.0272 114.381 28.0454 114.399 28.0636C114.403 28.0672 114.406 28.0672 114.41 28.0708C114.425 28.0854 114.443 28.0963 114.457 28.1072C114.464 28.1145 114.475 28.1218 114.483 28.1254C114.49 28.1327 114.497 28.1364 114.508 28.14C114.65 28.231 114.817 28.282 114.994 28.282C115.024 28.282 115.053 28.2783 115.078 28.2747C115.249 28.2601 115.405 28.1873 115.532 28.0818L115.535 28.0781C115.554 28.0636 115.568 28.049 115.583 28.0308C115.586 28.0272 115.593 28.0235 115.597 28.0199C115.612 28.0053 115.623 27.9908 115.633 27.9798C115.771 27.8124 115.848 27.6049 115.837 27.3902V14.6942H117.783V14.6905H117.79C118.305 14.665 118.683 14.261 118.668 13.7587C118.668 13.7551 118.668 13.7551 118.668 13.7514C118.672 13.7332 118.668 13.715 118.668 13.6968C118.668 13.6895 118.668 13.6823 118.668 13.6786C118.654 13.4857 118.57 13.311 118.44 13.1763C118.44 13.1763 118.44 13.1763 118.44 13.1727C118.436 13.1727 118.436 13.1727 118.436 13.1727C118.418 13.1545 118.403 13.1399 118.385 13.1254C118.378 13.1181 118.371 13.1144 118.367 13.1072C118.352 13.0962 118.342 13.089 118.327 13.078C118.316 13.0708 118.302 13.0598 118.291 13.0526C118.284 13.0489 118.273 13.0416 118.265 13.038C118.247 13.0271 118.229 13.0162 118.211 13.0089C118.207 13.0052 118.2 13.0016 118.196 13.0016C118.175 12.9907 118.153 12.9798 118.131 12.9725C118.127 12.9688 118.124 12.9688 118.117 12.9652C118.095 12.9579 118.073 12.9506 118.051 12.9434C118.044 12.9434 118.037 12.9397 118.029 12.9397C118.008 12.9361 117.989 12.9288 117.968 12.9252C117.957 12.9252 117.946 12.9252 117.935 12.9215C117.92 12.9179 117.902 12.9179 117.884 12.9142C117.87 12.9142 117.855 12.9142 117.844 12.9142C117.833 12.9142 117.822 12.9106 117.812 12.9106C117.801 12.9106 117.786 12.9106 117.783 12.9106H115.837V11.4765C115.837 11.4656 115.837 11.4546 115.837 11.4474C115.84 11.3746 115.84 11.3018 115.844 11.2326C115.844 11.2144 115.844 11.1926 115.848 11.1744C115.848 11.1125 115.851 11.0506 115.855 10.9924C115.855 10.9814 115.858 10.9669 115.858 10.956C115.862 10.8868 115.869 10.8176 115.877 10.7521C115.946 10.0423 116.098 9.59464 116.258 9.32164C116.261 9.31437 116.261 9.31073 116.265 9.30344C116.276 9.28525 116.29 9.26705 116.301 9.24885C116.309 9.23429 116.32 9.21973 116.33 9.20517C116.334 9.19789 116.341 9.18333 116.349 9.17605C116.367 9.15057 116.385 9.12873 116.407 9.10689C116.635 8.84846 116.991 8.69194 117.507 8.63006C117.514 8.63006 117.518 8.62642 117.528 8.62642C117.557 8.62278 117.59 8.61914 117.619 8.61914C117.634 8.6155 117.652 8.6155 117.666 8.61186C117.695 8.61186 117.721 8.60822 117.75 8.60822C117.772 8.60822 117.79 8.60458 117.815 8.60458C117.841 8.60094 117.866 8.60094 117.891 8.60094C117.917 8.60094 117.942 8.5973 117.968 8.5973C117.993 8.5973 118.018 8.5973 118.044 8.5973C118.08 8.5973 118.117 8.5973 118.153 8.5973H118.156C118.185 8.5973 118.211 8.59366 118.24 8.59002C118.273 8.59366 118.305 8.5973 118.338 8.5973H118.574C119.06 8.5973 119.46 8.19691 119.46 7.70552C119.46 7.21413 119.06 6.81738 118.574 6.81738Z" fill="white"/>
<path d="M123.257 6.84331C123.257 6.84331 123.254 6.83967 123.25 6.83967C123.232 6.83239 123.217 6.82511 123.196 6.82147C123.188 6.81783 123.177 6.81419 123.167 6.81055C123.152 6.80691 123.138 6.80327 123.123 6.79963C123.108 6.79599 123.094 6.78871 123.083 6.78871C123.065 6.78507 123.05 6.78143 123.032 6.78143C123.018 6.77779 123.007 6.77779 122.992 6.77415C122.963 6.77051 122.931 6.77051 122.902 6.77051C122.43 6.77051 122.03 7.16726 122.03 7.64045V27.3615C122.03 27.8383 122.43 28.2351 122.902 28.2351C122.931 28.2351 122.963 28.2351 122.992 28.2314C122.996 28.2314 123.003 28.2278 123.007 28.2278C123.032 28.2242 123.058 28.2205 123.083 28.2169C123.087 28.2169 123.094 28.2132 123.101 28.2132C123.123 28.206 123.145 28.2023 123.167 28.195C123.17 28.195 123.174 28.195 123.177 28.1914C123.511 28.0858 123.758 27.8019 123.795 27.4525C123.798 27.4234 123.802 27.3943 123.802 27.3615V7.64045C123.802 7.61133 123.798 7.58221 123.795 7.55309C123.762 7.23278 123.551 6.96706 123.257 6.84331Z" fill="white"/>
<path d="M56.6022 23.5941C56.5949 23.5431 56.5949 23.4958 56.5876 23.4485C56.584 23.4121 56.5804 23.3793 56.5767 23.3466C56.5695 23.3066 56.5659 23.2702 56.5586 23.2301C56.5513 23.1937 56.5441 23.1573 56.5368 23.1173C56.5332 23.0882 56.5259 23.0554 56.5187 23.0263C56.5078 22.9826 56.5005 22.9426 56.4896 22.8989C56.4824 22.877 56.4751 22.8516 56.4678 22.8297C56.4569 22.7824 56.4424 22.7387 56.4243 22.695C56.4206 22.6768 56.4134 22.6586 56.4098 22.6441C56.3916 22.5931 56.3735 22.5458 56.3517 22.4949C56.348 22.4876 56.3444 22.4767 56.3408 22.4657C56.3154 22.4148 56.2936 22.3602 56.2682 22.3092C56.2645 22.3056 56.2645 22.3019 56.2609 22.2983C56.054 21.8797 55.7599 21.5303 55.4005 21.2354C55.4005 21.2318 55.4005 21.2318 55.3969 21.2318C55.3461 21.1918 55.2953 21.1481 55.2408 21.108C55.2408 21.108 55.2372 21.1044 55.2336 21.1008C55.2299 21.1008 55.2263 21.0971 55.2227 21.0935C55.19 21.0716 55.1573 21.0462 55.1283 21.0243C54.6817 20.7077 54.188 20.4565 53.4692 20.1799C53.4583 20.1762 53.4475 20.1726 53.4366 20.1689C53.4257 20.1617 53.4112 20.158 53.4003 20.1507C52.9937 19.9979 52.5726 19.8523 52.1406 19.7103C52.1406 19.7103 52.1406 19.7103 52.1369 19.7103C52.1369 19.7103 52.1333 19.7103 52.1333 19.7067C52.126 19.7067 52.1188 19.703 52.1079 19.6994C52.068 19.6848 52.0244 19.6703 51.9663 19.6521C51.9373 19.6448 51.9155 19.6375 51.8937 19.6302C51.7485 19.5793 51.5997 19.532 51.4508 19.481C51.3455 19.4446 51.233 19.4082 51.0987 19.3645C51.0624 19.3536 50.9752 19.3245 50.9026 19.3026C50.899 19.3026 50.899 19.299 50.8954 19.299C50.8518 19.2844 50.8083 19.2699 50.7611 19.2553C50.398 19.1388 50.1004 19.0369 49.8462 18.9423C49.4324 18.7894 49.0548 18.6256 48.7463 18.4291C48.739 18.4254 48.7317 18.4218 48.7281 18.4181C48.307 18.1488 48.0166 17.8176 47.9476 17.3844L47.944 17.3808C47.9403 17.3517 47.9367 17.3189 47.9367 17.2898C47.9331 17.2825 47.9331 17.2789 47.9331 17.2752C47.9295 17.2388 47.9295 17.2061 47.9295 17.1697C47.9295 17.1187 47.9331 17.0677 47.9367 17.0204C47.9367 17.0059 47.9367 16.9949 47.9403 16.984C47.944 16.944 47.9476 16.9076 47.9512 16.8712C47.9549 16.8603 47.9549 16.8493 47.9585 16.8384C47.9658 16.7984 47.973 16.762 47.9803 16.7219C47.9839 16.7183 47.9839 16.711 47.9875 16.7037C47.9984 16.6601 48.0093 16.62 48.0238 16.58C48.0238 16.5763 48.0238 16.5763 48.0238 16.5763C48.2126 16.0122 48.6591 15.5936 49.1855 15.2987C49.2218 15.2805 49.2581 15.2623 49.2908 15.2441C49.3271 15.2259 49.3598 15.2077 49.3925 15.1932C49.4469 15.1677 49.5014 15.1422 49.5558 15.1204C49.5885 15.1058 49.6175 15.0913 49.6502 15.0803C49.7083 15.0585 49.7664 15.0367 49.8245 15.0148C49.8535 15.0039 49.8862 14.993 49.9188 14.9821C49.9769 14.9639 50.0314 14.9457 50.0895 14.9311C50.1258 14.9202 50.1584 14.9093 50.1947 14.902C50.2492 14.8874 50.3037 14.8765 50.3545 14.8619C50.3908 14.8547 50.4271 14.8474 50.4634 14.8401C50.5215 14.8292 50.5759 14.8183 50.6267 14.811C50.6594 14.8074 50.6885 14.8037 50.7211 14.7964C50.7828 14.7892 50.8482 14.7819 50.9135 14.7782C50.9281 14.7746 50.9426 14.7746 50.9607 14.771C51.0406 14.7673 51.1205 14.7637 51.1967 14.7637C51.2875 14.7637 51.3782 14.7673 51.4653 14.771C51.4799 14.771 51.4944 14.771 51.5053 14.771C52.1478 14.811 52.667 14.9675 53.0953 15.175C53.128 15.1895 53.1607 15.2077 53.1933 15.2223C53.2115 15.2332 53.2296 15.2441 53.2478 15.2514C53.2877 15.2733 53.3277 15.2951 53.3712 15.3206C53.3785 15.3242 53.3857 15.3279 53.393 15.3315C53.4366 15.357 53.4801 15.3861 53.5237 15.4116C53.5273 15.4152 53.531 15.4152 53.531 15.4152C53.5781 15.4443 53.6253 15.4771 53.6725 15.5062C53.6725 15.5099 53.6762 15.5099 53.6762 15.5135C53.7234 15.5426 53.7669 15.5717 53.8105 15.6045C53.8286 15.6191 53.8432 15.63 53.8613 15.6409C53.963 15.7173 54.1227 15.8411 54.2679 15.9612C54.286 15.9721 54.3006 15.983 54.3115 15.994C54.4204 16.085 54.522 16.165 54.62 16.2378C54.6382 16.2524 54.6527 16.2633 54.6636 16.2706C54.6672 16.2742 54.6709 16.2779 54.6745 16.2779C54.6854 16.2852 54.6963 16.2924 54.7072 16.2997C54.7326 16.3179 54.7616 16.3361 54.787 16.3543C54.7979 16.3616 54.8088 16.3652 54.8197 16.3725C54.8451 16.3871 54.8705 16.4016 54.8959 16.4162C54.9068 16.4198 54.9141 16.4235 54.925 16.4271C54.954 16.4417 54.9794 16.4526 55.0085 16.4635C55.0157 16.4672 55.0194 16.4672 55.0266 16.4708C55.0593 16.4817 55.092 16.4926 55.1246 16.4963C55.1246 16.4963 55.1246 16.4963 55.1283 16.4999C55.2009 16.5108 55.2698 16.5145 55.3425 16.4963C55.3497 16.4963 55.357 16.4926 55.3642 16.4926C55.3824 16.489 55.4042 16.4817 55.4223 16.4781C55.4296 16.4744 55.4332 16.4708 55.4405 16.4672C55.4477 16.4672 55.455 16.4635 55.4623 16.4599C55.4913 16.4453 55.5203 16.4308 55.5494 16.4126C55.5566 16.4126 55.5603 16.4089 55.5639 16.4053C55.5966 16.3834 55.6256 16.3616 55.6547 16.3361C55.6583 16.3325 55.6583 16.3325 55.6583 16.3325C55.6837 16.3106 55.7055 16.2852 55.7273 16.2597C55.7418 16.2415 55.7563 16.2196 55.7672 16.1978C55.7708 16.1942 55.7745 16.1905 55.7745 16.1869C55.9269 15.9321 55.8398 15.5972 55.5712 15.2332C55.5675 15.2259 55.5639 15.2187 55.5566 15.2114C55.5457 15.1968 55.5385 15.1859 55.5276 15.1713C54.9105 14.3706 53.5055 13.4933 52.2023 13.2131C52.195 13.2131 52.1878 13.2131 52.1805 13.2094C52.126 13.1985 52.068 13.1876 52.0135 13.1767C51.999 13.1767 51.9808 13.173 51.9663 13.1694C51.9191 13.1621 51.8719 13.1548 51.8247 13.1512C51.8066 13.1475 51.7884 13.1439 51.7703 13.1439C51.7267 13.1403 51.6795 13.1366 51.636 13.133C51.6178 13.1294 51.5997 13.1294 51.5851 13.1257C51.5234 13.1257 51.4653 13.1221 51.4072 13.1221C51.3129 13.1221 51.2185 13.1221 51.1277 13.1257C51.0769 13.1257 51.0261 13.1294 50.9716 13.133C50.9353 13.1366 50.8918 13.1366 50.8554 13.1366C50.7828 13.1439 50.7139 13.1476 50.6449 13.1548C50.6267 13.1548 50.605 13.1548 50.5868 13.1585C50.5069 13.1657 50.4271 13.173 50.3508 13.1839C50.34 13.1839 50.3327 13.1839 50.3254 13.1839C50.2419 13.1949 50.1621 13.2058 50.0822 13.2203C50.0786 13.2203 50.0713 13.2203 50.0677 13.2203C49.9878 13.2313 49.908 13.2458 49.8317 13.2604C49.8281 13.2604 49.8245 13.264 49.8172 13.264C49.6538 13.2931 49.4941 13.3295 49.3416 13.3696C49.338 13.3696 49.338 13.3732 49.338 13.3732C49.2618 13.3914 49.1855 13.4133 49.1093 13.4351C49.0367 13.4569 48.9677 13.4824 48.9024 13.5043C48.8951 13.5043 48.8915 13.5079 48.8842 13.5079C48.8189 13.5334 48.7535 13.5552 48.6882 13.5807C48.6809 13.5843 48.6737 13.588 48.67 13.588C48.6047 13.6135 48.5466 13.6389 48.4849 13.6681C48.4776 13.6717 48.4667 13.6717 48.4595 13.679C48.405 13.7008 48.3469 13.7299 48.2961 13.7554C48.2816 13.7627 48.2707 13.7663 48.2598 13.7736C48.2054 13.7991 48.1545 13.8246 48.1037 13.8537C48.0892 13.861 48.0783 13.8683 48.0638 13.8755C48.0166 13.901 47.9694 13.9301 47.9222 13.9593C47.9077 13.9665 47.8932 13.9738 47.8786 13.9847C47.8169 14.0211 47.7588 14.0612 47.7007 14.0976C47.6318 14.1485 47.5628 14.1958 47.5011 14.2468C47.4938 14.2468 47.4902 14.2504 47.4902 14.2541C47.1816 14.4834 46.9166 14.7273 46.6988 15.0112C46.6915 15.0221 46.6806 15.033 46.6734 15.0439C46.648 15.084 46.6189 15.1204 46.5935 15.1568C46.5754 15.1859 46.5572 15.215 46.5391 15.2441C46.5245 15.266 46.51 15.2878 46.4991 15.3097C46.4701 15.357 46.4447 15.4043 46.4193 15.4553C46.4156 15.4625 46.412 15.4662 46.4084 15.4735C46.2123 15.8629 46.0998 16.3106 46.0562 16.853C46.0562 16.8603 46.0562 16.8675 46.0526 16.8748C46.049 16.9695 46.0417 17.0641 46.0381 17.166C46.0381 17.2425 46.0381 17.3189 46.0417 17.3953C46.0417 17.4063 46.0417 17.4172 46.0417 17.4281C46.0817 18.4691 46.5536 19.2517 47.4067 19.8596C47.414 19.8632 47.4212 19.8705 47.4285 19.8741C47.4648 19.8996 47.5011 19.9251 47.5374 19.9506C47.5628 19.9688 47.5918 19.9833 47.6173 20.0015C47.6245 20.0088 47.6354 20.0124 47.6427 20.0161C48.4849 20.5511 49.5159 20.8569 50.3763 21.1008C50.7974 21.2245 51.1749 21.3301 51.2874 21.3628C51.3129 21.3701 51.3383 21.3774 51.3601 21.3883C51.8756 21.5594 52.2713 21.6977 52.598 21.8287C52.6234 21.836 52.6452 21.8469 52.6706 21.8542C52.6778 21.8579 52.6887 21.8615 52.6996 21.8688C52.8848 21.9452 53.0663 22.0253 53.2405 22.1127C53.3857 22.1855 53.5201 22.2619 53.6544 22.342C53.9993 22.5567 54.2643 22.7897 54.4421 23.0445C54.4494 23.0518 54.453 23.059 54.4567 23.0663C54.4748 23.0882 54.4893 23.11 54.5002 23.1355C54.5111 23.15 54.5184 23.161 54.5256 23.1755C54.5365 23.1937 54.5474 23.2119 54.5547 23.2301C54.5656 23.2483 54.5728 23.2702 54.5837 23.2884C54.591 23.3029 54.5983 23.3175 54.6055 23.332C54.6128 23.3539 54.6237 23.3757 54.6309 23.4012C54.6346 23.4121 54.6418 23.4267 54.6454 23.4412C54.6527 23.4667 54.66 23.4922 54.6672 23.5177C54.6709 23.5286 54.6745 23.5395 54.6781 23.5541C54.6854 23.5795 54.6926 23.6087 54.6963 23.6341C54.6999 23.6451 54.7035 23.6596 54.7035 23.6705C54.7072 23.6997 54.7108 23.7288 54.7144 23.7579C54.718 23.7688 54.718 23.7797 54.718 23.7907C54.7217 23.8343 54.7253 23.8744 54.7253 23.9181C54.7253 23.9836 54.7217 24.0455 54.718 24.1073C54.718 24.1255 54.7144 24.1437 54.7144 24.1619C54.7108 24.2093 54.7035 24.2566 54.6926 24.3039C54.6926 24.3184 54.689 24.333 54.6854 24.3476C54.6636 24.475 54.6273 24.5951 54.5801 24.7152C54.5765 24.7188 54.5765 24.7225 54.5765 24.7261C54.5511 24.7807 54.5256 24.839 54.4966 24.8899C54.493 24.8972 54.493 24.9008 54.4893 24.9045C54.4276 25.021 54.355 25.1338 54.2643 25.2393C54.2207 25.2939 54.1735 25.3449 54.1263 25.3959C54.1227 25.3959 54.1227 25.3959 54.1227 25.3995C54.0247 25.4978 53.9158 25.5888 53.8032 25.6725C53.7996 25.6761 53.796 25.6761 53.796 25.6798C53.7415 25.7162 53.6871 25.7562 53.6326 25.789C53.6253 25.7963 53.6181 25.7999 53.6108 25.8035C53.5164 25.8618 53.4148 25.92 53.3131 25.971C53.2768 25.9892 53.2405 26.0074 53.2006 26.0256C53.1607 26.0438 53.1171 26.0656 53.0735 26.0838C53.0372 26.0984 53.0046 26.1129 52.9683 26.1275C52.8702 26.1639 52.7759 26.2003 52.6778 26.233C52.6633 26.2367 52.6488 26.2403 52.6343 26.2476C52.5762 26.2658 52.5181 26.2804 52.46 26.2986C52.4455 26.3022 52.4274 26.3095 52.4128 26.3131C52.2204 26.3641 52.0317 26.4041 51.8538 26.4332C51.8501 26.4332 51.8465 26.4332 51.8429 26.4332C51.7521 26.4478 51.665 26.4587 51.5815 26.4696C51.5488 26.4733 51.5198 26.4769 51.4871 26.4769C51.4581 26.4806 51.429 26.4806 51.3964 26.4842C51.3274 26.4878 51.2548 26.4915 51.1894 26.4915C51.0551 26.4915 50.9244 26.4878 50.7974 26.4806C50.7465 26.4806 50.6957 26.4769 50.6449 26.4733C50.5759 26.466 50.5033 26.4624 50.438 26.4551C50.3763 26.4514 50.3109 26.4442 50.2528 26.4369C50.1984 26.4296 50.1475 26.4223 50.0967 26.415C49.9842 26.3968 49.8789 26.3823 49.7736 26.3604C49.7264 26.3495 49.6756 26.3422 49.6284 26.3313C49.574 26.3168 49.5195 26.3058 49.4651 26.2913C49.4033 26.2767 49.3453 26.2622 49.2872 26.244C49.2472 26.233 49.2037 26.2221 49.1674 26.2112C49.0694 26.1821 48.9713 26.1493 48.877 26.1129C48.8552 26.1056 48.8334 26.0984 48.8116 26.0911C48.6011 26.011 48.3941 25.9236 48.1908 25.8217C48.1836 25.8181 48.1727 25.8108 48.1618 25.8072C48.0311 25.7417 47.8097 25.6179 47.5991 25.4978C47.5809 25.4869 47.5592 25.4759 47.541 25.465C47.3922 25.3777 47.2651 25.3049 47.1453 25.2466C47.1344 25.2393 47.1272 25.2357 47.1199 25.2321C47.1126 25.2284 47.1054 25.2248 47.1018 25.2248C47.0691 25.2102 47.0437 25.1957 47.0146 25.1847C47.0037 25.1811 46.9965 25.1775 46.9892 25.1738C46.913 25.1447 46.844 25.1229 46.775 25.1156C46.7532 25.1119 46.7315 25.1119 46.7097 25.1119C46.7024 25.1083 46.6952 25.1083 46.6879 25.1083C46.55 25.1083 46.4302 25.1556 46.3176 25.2612C46.2922 25.283 46.2704 25.3049 46.2486 25.3303C46.245 25.3376 46.2378 25.3449 46.2305 25.3522C46.216 25.3704 46.2051 25.3849 46.1942 25.3995C46.1869 25.4104 46.1797 25.4213 46.176 25.4286C46.1651 25.4432 46.1543 25.4577 46.147 25.4723C46.1397 25.4832 46.1361 25.4941 46.1325 25.5051C46.1252 25.5196 46.118 25.5342 46.1107 25.5487C46.1071 25.5597 46.1034 25.5669 46.0998 25.5779C46.0925 25.5961 46.0889 25.6106 46.0853 25.6252C46.0817 25.6361 46.078 25.6434 46.078 25.6543C46.0744 25.6725 46.0708 25.6907 46.0671 25.7089C46.0671 25.7162 46.0635 25.7235 46.0635 25.7307C46.0599 25.7562 46.0599 25.7781 46.0599 25.7999C46.0599 25.8035 46.0599 25.8072 46.0599 25.8108C46.0599 25.8399 46.0635 25.8654 46.0708 25.8945C46.0708 25.8982 46.0708 25.9055 46.0708 25.9091C46.078 25.9309 46.0816 25.9564 46.0889 25.9782C46.0925 25.9892 46.0962 26.0001 46.0998 26.011C46.1071 26.0292 46.1107 26.051 46.1216 26.0692C46.1252 26.0802 46.1288 26.0874 46.1325 26.0947C46.1797 26.2039 46.2559 26.3168 46.3539 26.426C46.4592 26.5424 46.5935 26.6589 46.7496 26.779C46.7533 26.779 46.7533 26.779 46.7533 26.7827C46.7968 26.8118 46.8404 26.8445 46.8876 26.8773C46.8985 26.8846 46.9057 26.8919 46.9166 26.8955C47.0437 26.9829 47.178 27.0666 47.3305 27.1539C47.3668 27.1758 47.4031 27.1976 47.4394 27.2158C47.4757 27.2377 47.512 27.2559 47.5483 27.2741C47.5918 27.2995 47.6427 27.325 47.6899 27.3505C47.7225 27.3651 47.7516 27.3833 47.7842 27.3978C47.8569 27.4342 47.9331 27.4706 48.0093 27.507C48.0202 27.5143 48.0275 27.5179 48.0384 27.5216C48.1219 27.5616 48.2054 27.598 48.2889 27.6308C48.3252 27.6453 48.3578 27.6599 48.3941 27.6744C48.4014 27.6781 48.4086 27.6817 48.4159 27.6817C49.1928 27.9875 50.1512 28.1913 50.997 28.2277C51.0587 28.2314 51.1241 28.235 51.1858 28.235H51.1894C51.2185 28.235 51.2439 28.235 51.2729 28.2314C51.3383 28.2314 51.4036 28.2314 51.469 28.2314C51.4762 28.2314 51.4835 28.2314 51.4907 28.2277C52.8666 28.184 53.9956 27.8273 54.9577 27.1212C54.9577 27.1175 54.9577 27.1175 54.9577 27.1175C56.0249 26.3095 56.6131 25.1702 56.6131 23.9144C56.6131 23.8343 56.6094 23.7543 56.6058 23.6778C56.6058 23.6487 56.6022 23.6196 56.6022 23.5941Z" fill="white"/>
<path d="M65.4788 13.1514C65.4752 13.1514 65.4715 13.1514 65.4679 13.1514C63.7762 13.1514 62.1789 13.843 61.0245 15.066V14.0249C61.0245 13.5445 60.6542 13.1514 60.1859 13.1514C60.1532 13.1514 60.1242 13.155 60.0951 13.155C59.8882 13.1768 59.7067 13.2678 59.5724 13.4025C59.5687 13.4025 59.5687 13.4025 59.5651 13.4062C59.5542 13.4207 59.5397 13.4353 59.5288 13.4498C59.5215 13.4535 59.5143 13.4608 59.5106 13.468C59.4997 13.479 59.4925 13.4899 59.4852 13.5008C59.478 13.5117 59.4707 13.5226 59.4598 13.5336C59.4562 13.5408 59.4526 13.5481 59.4489 13.5554C59.438 13.5736 59.4271 13.5918 59.4163 13.6064C59.4163 13.61 59.4163 13.6136 59.4126 13.6173C59.4017 13.6391 59.3908 13.661 59.3799 13.6828C59.3618 13.7374 59.3436 13.792 59.3328 13.8466C59.3328 13.8502 59.3328 13.8539 59.3291 13.8539C59.3255 13.883 59.3219 13.9085 59.3182 13.9339C59.3182 13.9631 59.3146 13.9922 59.3146 14.0249V27.5436L59.3037 27.6018L59.3473 27.6382C59.3473 27.6564 59.3509 27.6819 59.3618 27.7074C59.3618 27.711 59.3654 27.7183 59.3654 27.7219C59.3727 27.7401 59.3836 27.762 59.4017 27.7802C59.5143 27.9949 59.7212 28.1587 59.9644 28.2315L59.9826 28.2352H60.1859C60.2185 28.2352 60.2512 28.2352 60.2839 28.2315C60.3057 28.2279 60.3274 28.2206 60.3492 28.217C60.3601 28.217 60.3674 28.217 60.3783 28.2133C60.4073 28.2061 60.4364 28.1988 60.4654 28.1879C60.4654 28.1879 60.4654 28.1879 60.469 28.1879C60.6215 28.1333 60.7522 28.0386 60.8393 27.9112C60.8429 27.9076 60.8466 27.9039 60.8502 27.9003C60.9083 27.8384 60.941 27.7729 60.9736 27.6819C60.9773 27.671 60.9809 27.6637 60.9809 27.6564C60.9845 27.6528 60.9845 27.6528 60.9845 27.6491C60.999 27.6055 61.0099 27.5618 61.0208 27.5181L61.0245 27.5036V19.321C61.0825 16.8823 63.0719 14.8985 65.4606 14.8949C65.4643 14.8949 65.4643 14.8949 65.4679 14.8949C67.9002 14.8949 69.8787 16.8786 69.8787 19.3174V27.3616C69.8787 27.3944 69.8823 27.4235 69.8859 27.4526C69.9041 27.6637 69.9948 27.8457 70.1292 27.9804C70.1292 27.9804 70.1328 27.9804 70.1328 27.984C70.1473 27.9986 70.1618 28.0095 70.1764 28.0241C70.1836 28.0313 70.1872 28.035 70.1945 28.0386C70.2054 28.0495 70.2163 28.0568 70.2272 28.0641C70.2381 28.075 70.249 28.0823 70.2599 28.0896C70.2707 28.0932 70.278 28.0969 70.2853 28.1041C70.2998 28.1151 70.3179 28.1223 70.3325 28.1333C70.3361 28.1333 70.3397 28.1369 70.347 28.1369C70.3651 28.1478 70.3869 28.1587 70.4087 28.1697H70.4123C70.4631 28.1915 70.5176 28.2061 70.5721 28.217C70.5793 28.217 70.5829 28.2206 70.5866 28.2206C70.612 28.2243 70.6338 28.2279 70.6592 28.2315C70.6882 28.2352 70.7173 28.2352 70.7499 28.2352C70.779 28.2352 70.808 28.2352 70.8371 28.2315C70.8625 28.2279 70.8879 28.2243 70.9097 28.2206C70.9133 28.2206 70.9206 28.217 70.9242 28.217C70.9823 28.2061 71.0331 28.1915 71.0876 28.1697C71.1093 28.1587 71.1311 28.1478 71.1529 28.1369C71.1565 28.1369 71.1602 28.1333 71.1638 28.1333C71.1819 28.1223 71.1965 28.1151 71.2146 28.1041C71.2219 28.0969 71.2291 28.0932 71.2364 28.0896C71.2473 28.0823 71.2582 28.075 71.2691 28.0641C71.28 28.0568 71.2945 28.0495 71.3054 28.0386C71.309 28.035 71.3163 28.0313 71.3199 28.0241C71.3344 28.0095 71.3526 27.9986 71.3671 27.984C71.3671 27.9804 71.3671 27.9804 71.3671 27.9804C71.505 27.8457 71.5958 27.6637 71.6139 27.4526C71.6176 27.4235 71.6176 27.3944 71.6176 27.3616V19.3174C71.6176 15.9213 68.8658 13.1586 65.4788 13.1514Z" fill="white"/>
<path d="M81.1392 13.1221C85.0817 13.1221 88.2872 16.5108 88.2872 20.6785C88.2872 24.8462 85.0817 28.235 81.1392 28.235C81.0158 28.235 80.896 28.2314 80.7762 28.2241C80.758 28.2241 80.7435 28.2241 80.7254 28.2204C80.6201 28.2168 80.5148 28.2059 80.4131 28.195C80.4095 28.195 80.4059 28.195 80.4023 28.195C78.8449 28.0239 77.3891 27.3105 76.2311 26.142C76.1839 26.0947 76.1331 26.0474 76.0895 25.9964C76.0859 25.9964 76.0859 25.9928 76.0822 25.9928C76.0568 25.9673 76.0351 25.9382 76.0096 25.9091C75.9552 25.8509 75.9007 25.789 75.8463 25.7271C75.8027 25.6798 75.7628 25.6252 75.7192 25.5742C75.6902 25.5342 75.6575 25.4941 75.6248 25.4541C75.5595 25.374 75.4978 25.2903 75.4397 25.2066C75.4324 25.1957 75.4252 25.1847 75.4179 25.1738C74.71 24.1801 74.249 23.0336 74.0747 21.8178C74.0566 21.705 74.0457 21.5922 74.0348 21.4793C74.0311 21.4684 74.0311 21.4538 74.0275 21.4393C74.0166 21.3337 74.0094 21.2318 74.0057 21.1262C74.0021 21.1044 74.0021 21.0826 74.0021 21.0571C73.9948 20.9333 73.9912 20.8059 73.9912 20.6785C73.9912 20.5511 73.9948 20.4237 74.0021 20.3C74.0021 20.2745 74.0021 20.2527 74.0057 20.2308C74.0094 20.1253 74.0166 20.0197 74.0275 19.9178C74.0311 19.9032 74.0311 19.8887 74.0348 19.8778C74.0457 19.7649 74.0566 19.6521 74.0747 19.5392C74.249 18.3235 74.71 17.1769 75.4179 16.1832C75.4215 16.1723 75.4288 16.1614 75.4361 16.1541C75.4978 16.0668 75.5595 15.983 75.6248 15.8993C75.6539 15.8629 75.6865 15.8265 75.7156 15.7865C75.7591 15.7319 75.8027 15.6809 75.8463 15.6263C75.8971 15.5681 75.9479 15.5135 76.0024 15.4553C76.0278 15.4261 76.0568 15.3934 76.0822 15.3643C76.0859 15.3643 76.0859 15.3606 76.0895 15.3606C76.1294 15.3133 76.1766 15.2696 76.2202 15.2259C77.3782 14.0539 78.8376 13.3332 80.4023 13.1621C80.4059 13.1621 80.4095 13.1621 80.4131 13.1621C80.5148 13.1512 80.6201 13.1439 80.7254 13.1366C80.7435 13.1366 80.758 13.133 80.7762 13.133C80.896 13.1257 81.0158 13.1221 81.1392 13.1221ZM86.5193 20.0852C86.5193 20.0816 86.5193 20.0816 86.5193 20.0779C86.3922 18.7676 85.8549 17.5846 85.0526 16.671C85.0163 16.6309 84.9837 16.5909 84.9474 16.5509C84.9256 16.529 84.9038 16.5072 84.882 16.4854C84.8384 16.4417 84.7985 16.398 84.7549 16.3543C84.715 16.3143 84.6715 16.2779 84.6315 16.2415C84.6061 16.2196 84.5843 16.1942 84.5589 16.1723C84.4936 16.1141 84.4282 16.0595 84.3629 16.0049C84.3629 16.0049 84.3592 16.0049 84.3592 16.0012C83.6005 15.3861 82.6893 14.9821 81.7092 14.8692C81.6983 14.8692 81.691 14.8656 81.6837 14.8656C81.6075 14.8547 81.5349 14.851 81.4587 14.8474C81.4405 14.8438 81.426 14.8438 81.4115 14.8438C81.3207 14.8365 81.23 14.8365 81.1392 14.8365C81.0484 14.8365 80.9577 14.8365 80.8669 14.8438C80.8524 14.8438 80.8379 14.8438 80.8197 14.8474C80.7435 14.851 80.6709 14.8547 80.5947 14.8656C80.5874 14.8656 80.5801 14.8692 80.5693 14.8692C79.5891 14.9821 78.6779 15.3861 77.9192 16.0012C77.9192 16.0049 77.9155 16.0049 77.9155 16.0049C77.8502 16.0595 77.7848 16.1141 77.7195 16.1723C77.6941 16.1942 77.6723 16.216 77.6469 16.2378C77.607 16.2779 77.5634 16.3143 77.5235 16.3543C77.4835 16.3944 77.4436 16.438 77.4 16.4817C77.3782 16.5036 77.3565 16.5254 77.3311 16.5509C77.2984 16.5873 77.2657 16.6273 77.2294 16.6673C76.4271 17.581 75.8862 18.7676 75.7591 20.0779C75.7591 20.0816 75.7591 20.0816 75.7591 20.0852C75.7519 20.1689 75.7446 20.2527 75.741 20.34C75.741 20.3546 75.7374 20.3691 75.7374 20.3837C75.7337 20.482 75.7301 20.5803 75.7301 20.6785C75.7301 23.878 78.1842 26.4915 81.1392 26.4915C84.0942 26.4915 86.5483 23.878 86.5483 20.6785C86.5483 20.5803 86.5447 20.482 86.541 20.3837C86.541 20.3691 86.5374 20.3546 86.5374 20.34C86.5338 20.2527 86.5265 20.1689 86.5193 20.0852Z" fill="white"/>
<path d="M109.296 13.4969C109.289 13.4896 109.286 13.4824 109.278 13.4751C109.191 13.3659 109.075 13.2785 108.944 13.2239C108.944 13.2239 108.944 13.2239 108.941 13.2239C108.926 13.213 108.908 13.2094 108.894 13.2021C108.886 13.2021 108.879 13.1984 108.868 13.1948C108.752 13.1548 108.625 13.1475 108.501 13.1657H108.498C108.247 13.2057 108.008 13.3586 107.873 13.5843C107.873 13.5843 107.873 13.5843 107.87 13.5843C107.852 13.6207 107.83 13.6571 107.815 13.6935L107.812 13.6971V13.7008L103.651 25.1192L100.384 17.3225C100.352 17.2497 100.308 17.1842 100.257 17.1223C100.079 16.9148 99.807 16.7838 99.5275 16.7838C99.4839 16.7838 99.444 16.7838 99.4004 16.7947C99.3968 16.7947 99.3931 16.7947 99.3859 16.7947C99.0955 16.8456 98.8232 17.0495 98.6998 17.3225C98.6998 17.3261 98.6998 17.3261 98.6998 17.3261L95.4325 25.1228L93.8497 20.8095L91.2432 13.7008C91.2287 13.6607 91.2141 13.628 91.196 13.5916C91.1924 13.5879 91.1924 13.5879 91.1887 13.5843C91.1089 13.435 90.9818 13.3186 90.8293 13.2458C90.8293 13.2458 90.8257 13.2458 90.8257 13.2421C90.7495 13.2094 90.6696 13.1839 90.5861 13.1693C90.5789 13.1693 90.5752 13.1693 90.568 13.1657C90.528 13.1621 90.4845 13.1584 90.4445 13.1584H90.4409C90.43 13.1584 90.4227 13.1584 90.4155 13.1584C90.3973 13.1584 90.3792 13.1584 90.361 13.1621C90.3501 13.1621 90.3356 13.1657 90.3247 13.1657C90.3066 13.1693 90.2921 13.1693 90.2775 13.173C90.2666 13.1766 90.2558 13.1766 90.2449 13.1803C90.2267 13.1839 90.2086 13.1875 90.1904 13.1948C90.1832 13.1984 90.1759 13.1984 90.1686 13.2021C90.1505 13.2094 90.1323 13.213 90.1142 13.2239C90.1142 13.2239 90.1142 13.2239 90.1105 13.2239C89.9617 13.2894 89.8419 13.4023 89.7548 13.5333C89.7511 13.5406 89.7475 13.5442 89.7439 13.5515C89.7403 13.5588 89.7366 13.5661 89.733 13.5734C89.6677 13.6826 89.6277 13.81 89.6132 13.9374C89.5987 14.072 89.6168 14.214 89.6713 14.345L92.688 22.473L94.623 27.6853C94.623 27.6853 94.623 27.6853 94.623 27.689C94.7028 27.8855 94.819 28.0202 94.9787 28.093C94.9824 28.0966 94.9896 28.1003 94.9933 28.1039C94.9969 28.1075 95.0005 28.1112 95.0078 28.1148C95.0078 28.1185 95.0114 28.1185 95.015 28.1221C95.0223 28.1257 95.0259 28.1294 95.0332 28.1367C95.0368 28.1367 95.0368 28.1367 95.0404 28.1367C95.0695 28.1549 95.1058 28.1694 95.153 28.1731C95.1566 28.1731 95.1602 28.1767 95.1639 28.1767C95.1784 28.1803 95.1929 28.1876 95.2074 28.1913C95.2147 28.1913 95.222 28.1949 95.2292 28.1949C95.32 28.224 95.3781 28.2349 95.4507 28.2349C95.4906 28.2349 95.5269 28.2313 95.5668 28.224C95.5959 28.2204 95.6285 28.2131 95.6576 28.2022C95.6649 28.1985 95.6721 28.1985 95.6794 28.1949C95.7084 28.1876 95.7375 28.1767 95.7665 28.1621C95.7774 28.1585 95.7883 28.1549 95.7992 28.1476C95.8173 28.1367 95.8391 28.1257 95.8609 28.1148C95.8754 28.1039 95.8936 28.093 95.9117 28.0821C95.9226 28.0748 95.9335 28.0639 95.9444 28.0566C95.9698 28.0384 95.9916 28.0202 96.017 27.9983C96.0206 27.9947 96.0242 27.9911 96.0279 27.9838C96.0533 27.9583 96.0787 27.9328 96.1041 27.9037C96.1041 27.9001 96.1077 27.8964 96.1114 27.8928C96.1332 27.8637 96.1549 27.8309 96.1731 27.7981C96.1912 27.7618 96.2094 27.7217 96.2239 27.6817L96.2275 27.6708L96.2384 27.6562L96.2493 27.6307L99.5275 19.7831L102.835 27.6598C102.86 27.7399 102.9 27.8127 102.954 27.8819C102.962 27.8928 102.969 27.9001 102.976 27.911C102.994 27.9328 103.013 27.9547 103.034 27.9765C103.045 27.9838 103.056 27.9947 103.067 28.002C103.085 28.0202 103.107 28.0384 103.129 28.0566C103.14 28.0639 103.147 28.0711 103.158 28.0748C103.183 28.093 103.209 28.1112 103.234 28.1257C103.241 28.1294 103.248 28.133 103.256 28.1367C103.285 28.1512 103.31 28.1658 103.343 28.1767C103.35 28.1803 103.357 28.184 103.368 28.184C103.394 28.1949 103.419 28.2058 103.448 28.2131C103.484 28.2204 103.521 28.2277 103.553 28.2349H103.662C103.706 28.2349 103.746 28.2313 103.786 28.224C103.797 28.224 103.804 28.224 103.815 28.2204C103.851 28.2131 103.884 28.2058 103.916 28.1949C103.927 28.1913 103.935 28.1876 103.942 28.184C103.978 28.1731 104.014 28.1549 104.047 28.1367C104.051 28.1367 104.054 28.133 104.058 28.133C104.098 28.1075 104.138 28.0821 104.171 28.0566C104.316 27.9474 104.421 27.8054 104.494 27.6307V27.6271L106.537 22.109L109.413 14.345C109.525 14.072 109.482 13.7736 109.326 13.5406C109.318 13.526 109.307 13.5115 109.296 13.4969Z" fill="white"/>
<path d="M155.462 13.7409C155.462 13.7264 155.458 13.7082 155.454 13.6936C155.454 13.6827 155.451 13.6718 155.447 13.6609C155.444 13.6427 155.44 13.6245 155.436 13.6099C155.433 13.599 155.429 13.5881 155.425 13.5808C155.422 13.5589 155.415 13.5407 155.404 13.5225C155.404 13.5153 155.4 13.5116 155.396 13.5044C155.385 13.4789 155.375 13.457 155.36 13.4352C155.36 13.4316 155.36 13.4316 155.36 13.4316C155.316 13.3551 155.262 13.2896 155.2 13.2314C155.197 13.2277 155.197 13.2277 155.197 13.2277C155.193 13.2241 155.193 13.2241 155.193 13.2241C154.884 12.9147 154.449 12.8746 154.108 13.1149C154.097 13.1222 154.089 13.1294 154.079 13.1331C154.064 13.144 154.05 13.1549 154.035 13.1658C154.013 13.1877 153.991 13.2059 153.97 13.2277C153.97 13.2277 153.966 13.2277 153.966 13.2314L145.46 21.5449V7.64045C145.46 7.61133 145.46 7.58221 145.457 7.55309C145.424 7.23278 145.21 6.96706 144.919 6.84331C144.916 6.84331 144.916 6.83967 144.912 6.83967C144.894 6.83239 144.876 6.82511 144.858 6.82147C144.85 6.81783 144.84 6.81419 144.829 6.81055C144.814 6.80691 144.8 6.80327 144.781 6.79963C144.771 6.79599 144.756 6.79235 144.742 6.78871C144.727 6.78507 144.709 6.78143 144.694 6.78143C144.68 6.77779 144.669 6.77779 144.654 6.77415C144.622 6.77051 144.593 6.77051 144.564 6.77051C144.088 6.77051 143.692 7.16726 143.692 7.64045V27.3615C143.692 27.8383 144.088 28.2351 144.564 28.2351C144.593 28.2351 144.625 28.2351 144.654 28.2314C144.658 28.2314 144.662 28.2278 144.669 28.2278C144.694 28.2242 144.72 28.2242 144.742 28.2169C144.749 28.2169 144.756 28.2132 144.763 28.2132C144.785 28.206 144.807 28.2023 144.829 28.195C144.832 28.195 144.836 28.1914 144.84 28.1914C145.174 28.0858 145.42 27.7983 145.457 27.4525C145.46 27.4234 145.46 27.3943 145.46 27.3615V24.0346L148.325 21.1664L153.89 27.9002C153.926 27.9585 153.966 28.0094 154.017 28.0494C154.028 28.0604 154.035 28.0676 154.046 28.0749C154.06 28.0858 154.075 28.0968 154.089 28.104C154.108 28.1186 154.126 28.1259 154.144 28.1368C154.151 28.1404 154.162 28.1477 154.169 28.1514C154.195 28.1623 154.217 28.1696 154.242 28.1805C154.249 28.1841 154.256 28.1841 154.26 28.1878C154.289 28.195 154.315 28.2023 154.344 28.2096C154.347 28.2096 154.354 28.2132 154.362 28.2132C154.391 28.2205 154.416 28.2242 154.449 28.2278C154.456 28.2278 154.463 28.2278 154.471 28.2314C154.507 28.2314 154.543 28.2351 154.583 28.2351C154.641 28.2351 154.696 28.2314 154.747 28.2242C154.75 28.2242 154.75 28.2242 154.75 28.2242C154.852 28.2096 154.946 28.1768 155.033 28.1332C155.037 28.1332 155.037 28.1295 155.037 28.1295C155.077 28.1077 155.117 28.0822 155.157 28.0531L155.168 28.0422C155.498 27.7109 155.549 27.2596 155.309 26.8847C155.287 26.8519 155.266 26.8192 155.24 26.7864L149.588 19.9033L155.2 14.4653C155.349 14.3124 155.44 14.1268 155.462 13.9266C155.462 13.9229 155.462 13.9193 155.465 13.9157C155.465 13.8975 155.465 13.8756 155.465 13.8574C155.465 13.8465 155.469 13.8356 155.469 13.8283C155.469 13.821 155.469 13.8174 155.469 13.8137C155.469 13.7992 155.465 13.7883 155.465 13.7737C155.465 13.7628 155.462 13.7519 155.462 13.7409Z" fill="white"/>
</g>
<defs>
<clipPath id="clip0_1903_2210">
<rect width="171" height="41" fill="white" transform="translate(0.0283203)"/>
</clipPath>
</defs>
</svg>
