<svg width="121" height="27" viewBox="0 0 121 27" fill="none" xmlns="http://www.w3.org/2000/svg">
<g clip-path="url(#clip0_1903_2195)">
<path fill-rule="evenodd" clip-rule="evenodd" d="M44.8499 7.77207C48.0091 10.9352 48.0091 16.064 44.8499 19.2271C41.6907 22.3903 36.5683 22.3903 33.4091 19.2271C30.2499 16.064 30.2499 10.9352 33.4091 7.77207C36.5683 4.60894 41.6907 4.60894 44.8499 7.77207ZM39.1379 0C42.5859 0.00240299 46.0331 1.32004 48.6635 3.95372C53.9291 9.22588 53.9291 17.7733 48.6635 23.0455C43.3979 28.3176 34.8611 28.3176 29.5955 23.0455C24.3299 17.7733 24.3299 9.22588 29.5955 3.95372C32.2259 1.32004 35.6731 0.00240299 39.1211 0H39.1379ZM73.1643 7.77207C76.3235 10.9352 76.3235 16.064 73.1643 19.2271C70.0051 22.3903 64.8827 22.3903 61.7235 19.2271C58.5643 16.064 58.5643 10.9352 61.7235 7.77207C64.8827 4.60894 70.0051 4.60894 73.1643 7.77207ZM76.9779 3.95372C82.2435 9.22588 82.2435 17.7733 76.9779 23.0455C71.7123 28.3176 63.1755 28.3176 57.9099 23.0455C52.6443 17.7733 52.6443 9.22588 57.9099 3.95372C60.5403 1.32004 63.9875 0.00240299 67.4355 0C70.9003 0.00240299 74.3475 1.32004 76.9779 3.95372ZM5.42192 26.9327L6.76992 27H26.9947L26.9275 25.6511C26.7467 23.4284 25.1747 21.8063 22.9499 21.667L21.6019 21.5997H9.46672L25.6459 5.40032L25.5787 4.05224C25.4715 1.81185 23.8347 0.186632 21.6011 0.0680847L20.2531 0.00160199L0.0283203 0L0.0955203 1.34888C0.26992 3.54521 1.86592 5.20488 4.07152 5.33304L5.42112 5.40032H17.5563L1.37632 21.5997L1.44352 22.9486C1.57632 25.1737 3.18192 26.7845 5.42112 26.9327H5.42192ZM97.7291 8.09167C98.1907 8.88786 98.3363 9.78658 98.3883 10.7998L98.4555 12.1495V21.5997L98.5227 22.9486C98.6563 25.1561 100.277 26.7909 102.502 26.9327L103.849 27V12.1503L103.916 10.8006C103.969 9.79939 104.116 8.88065 104.581 8.08206C105.516 6.47846 107.253 5.40032 109.242 5.40032C111.231 5.40032 112.98 6.48567 113.913 8.09888C114.372 8.89347 114.515 9.81061 114.568 10.7998L114.636 12.1487V21.6005L114.703 22.9494C114.843 25.1697 116.454 26.8038 118.682 26.9335L120.029 27.0008V10.7998C120.029 4.83482 115.2 0 109.243 0C106.021 0 103.129 1.41376 101.153 3.65655C99.1763 1.41456 96.2851 0 93.0635 0C90.8251 0 88.7459 0.682449 87.0227 1.8511C85.9739 0.682449 83.6251 0 82.2771 0V27L83.6251 26.9327C85.8771 26.7845 87.5147 25.1922 87.6027 22.951L87.6699 21.6005V12.1503L87.7371 10.8006C87.7939 9.78498 87.9355 8.88466 88.3987 8.08766C89.3331 6.48087 91.0723 5.40112 93.0627 5.40112C95.0531 5.40112 96.7955 6.48327 97.7299 8.09247L97.7291 8.09167Z" fill="white"/>
</g>
<defs>
<clipPath id="clip0_1903_2195">
<rect width="120" height="27" fill="white" transform="translate(0.0283203)"/>
</clipPath>
</defs>
</svg>
